<?xml version="1.0" standalone="no"?>
<!DOCTYPE svg PUBLIC "-//W3C//DTD SVG 20010904//EN"
 "http://www.w3.org/TR/2001/REC-SVG-20010904/DTD/svg10.dtd">
<svg version="1.0" xmlns="http://www.w3.org/2000/svg"
 width="512.000000pt" height="512.000000pt" viewBox="0 0 512.000000 512.000000"
 preserveAspectRatio="xMidYMid meet">
<metadata>
Created by potrace 1.16, written by Peter Selinger 2001-2019
</metadata>
<g transform="translate(0.000000,512.000000) scale(0.100000,-0.100000)"
fill="#000000" stroke="none">
<path d="M4442 5074 c-1 -25 -23 -139 -48 -253 -25 -113 -48 -221 -51 -238 -7
-38 -20 -43 -32 -11 -7 18 -9 12 -15 -32 -4 -30 -17 -100 -30 -155 l-24 -100
-25 56 c-35 77 -128 368 -184 575 -25 96 -48 173 -49 171 -6 -6 18 -361 31
-457 21 -153 26 -247 17 -315 l-8 -60 -48 96 -48 95 -1 125 c-2 151 4 249 16
242 4 -2 5 7 1 21 -4 17 -2 26 6 26 6 0 8 4 5 10 -3 5 1 37 10 71 9 33 14 66
12 72 -2 6 -16 -38 -31 -98 -74 -301 -168 -606 -262 -856 -17 -45 -17 -46 6
-77 20 -26 24 -47 27 -119 4 -77 2 -86 -10 -70 -18 22 -70 22 -89 0 -12 -15
-13 -43 -5 -188 12 -222 12 -226 2 -389 -7 -124 -6 -140 9 -151 14 -11 11 -13
-21 -18 -43 -7 -51 -3 -34 17 10 12 10 25 -3 63 -23 71 -36 167 -36 266 0 81
-2 88 -22 97 -58 24 -58 22 -58 222 0 146 3 188 15 204 11 14 14 48 15 131 0
87 4 118 18 143 17 31 17 31 -12 56 -34 30 -70 136 -111 326 -33 153 -36 161
-45 123 -10 -41 -11 -80 -1 -45 4 14 6 -26 5 -88 -3 -103 -1 -117 21 -159 37
-68 32 -123 -10 -123 -29 0 -55 -10 -55 -20 0 -4 28 -10 63 -12 62 -5 127 -30
127 -48 0 -5 -17 -2 -37 7 -52 21 -172 14 -237 -15 -27 -12 -51 -20 -54 -17
-3 2 10 17 28 32 58 50 100 113 100 150 0 22 -4 32 -11 27 -7 -4 -9 0 -6 12
20 67 13 66 -13 -1 -37 -97 -46 -107 -55 -63 -8 32 -9 30 -25 -37 -9 -38 -22
-80 -29 -93 -11 -20 -10 -27 3 -41 11 -12 16 -37 16 -84 0 -62 -11 -90 -25
-67 -4 6 -11 8 -16 5 -12 -8 -12 -188 0 -200 10 -11 19 -460 10 -470 -7 -6
-13 23 -26 115 -6 48 -8 51 -13 25 -5 -26 -8 -21 -24 43 -10 40 -20 71 -23 68
-2 -2 0 -21 6 -43 6 -21 11 -47 10 -58 0 -11 -7 3 -15 30 -8 28 -13 60 -10 73
2 12 1 20 -2 17 -3 -3 -21 57 -39 132 -19 76 -39 140 -44 141 -5 2 -9 69 -9
149 0 131 2 149 21 180 24 38 23 84 -4 198 -13 56 -14 58 -18 26 -4 -33 -5
-34 -21 -17 -12 12 -18 34 -19 69 -1 29 -3 43 -6 32 -12 -50 -23 -22 -67 172
-47 211 -54 259 -36 265 6 2 6 9 0 17 -7 12 -10 10 -13 -10 -7 -34 -27 -305
-27 -361 0 -29 -6 -52 -16 -62 -8 -9 -11 -16 -5 -16 6 0 11 -16 11 -35 0 -33
-2 -35 -35 -35 l-35 0 6 43 c3 23 12 67 20 98 17 70 17 83 0 44 -13 -30 -13
-30 -24 35 l-11 65 3 -97 c2 -99 -8 -130 -19 -60 -10 59 -13 61 -14 6 -1 -36
-6 -54 -16 -58 -19 -7 -19 5 0 74 24 90 16 101 -12 15 -14 -44 -29 -85 -33
-90 -5 -6 -5 -36 -1 -67 7 -56 7 -58 -26 -88 -31 -29 -33 -36 -33 -94 0 -50 4
-67 20 -81 19 -17 20 -31 20 -355 0 -185 -3 -366 -7 -401 l-8 -64 -6 60 c-6
59 -6 58 -6 -19 0 -71 -2 -80 -20 -87 -19 -7 -21 -2 -27 59 -3 37 -6 134 -6
216 0 119 3 153 15 166 8 9 18 38 21 64 6 42 4 50 -25 87 -37 46 -51 85 -52
149 0 39 -2 42 -10 21 -5 -13 -11 -22 -13 -20 -2 2 -42 101 -89 219 -47 118
-96 238 -109 267 l-25 52 -19 -32 c-20 -34 -60 -119 -194 -417 -71 -158 -91
-192 -133 -233 -48 -47 -49 -50 -43 -93 3 -24 12 -58 21 -74 18 -34 22 -255 5
-265 -16 -10 -12 -91 5 -105 24 -20 19 -85 -8 -103 -22 -14 -23 -19 -19 -111
l4 -95 -51 24 -51 25 -2 78 c-1 42 0 122 1 177 3 87 7 104 27 131 30 39 30 75
2 161 -18 55 -23 63 -28 43 -3 -13 -10 -25 -16 -27 -18 -6 -43 74 -82 264 -20
101 -39 183 -42 183 -3 0 -13 -35 -22 -77 -10 -42 -36 -143 -59 -225 -38 -137
-43 -149 -68 -154 -43 -11 -72 -43 -64 -73 4 -14 6 -35 5 -46 -1 -11 13 -34
29 -51 l31 -32 -4 -161 c-3 -147 -2 -160 14 -155 15 4 17 -7 20 -98 2 -57 2
-104 2 -106 -1 -1 -34 77 -74 175 -40 98 -94 228 -120 288 -27 61 -50 124 -53
140 l-4 30 -2 -29 c0 -15 -31 -82 -68 -147 -67 -119 -67 -120 -81 -93 -16 30
-9 43 13 24 19 -16 19 -8 -2 38 -9 20 -15 40 -15 45 1 4 -3 7 -9 7 -6 0 -8 9
-4 21 5 16 4 19 -6 14 -9 -6 -11 -2 -7 13 4 12 2 20 -3 16 -5 -3 -9 5 -9 18 0
13 -6 55 -13 93 -12 61 -14 66 -20 39 -3 -17 -4 -42 -1 -55 5 -20 4 -21 -6 -9
-9 12 -10 9 -5 -14 9 -41 -4 -108 -25 -136 -18 -24 -18 -23 0 38 11 35 20 69
19 75 0 7 -13 -27 -28 -74 -15 -48 -37 -99 -48 -115 -18 -26 -20 -44 -18 -185
l2 -156 -25 -14 c-24 -13 -26 -19 -27 -99 0 -47 -5 -94 -10 -104 -6 -15 -5
-18 6 -13 8 3 41 17 74 31 73 30 95 55 95 108 0 32 -3 39 -15 34 -13 -5 -13
-1 1 32 8 20 36 87 61 147 44 108 159 345 167 345 6 0 -7 -50 -53 -212 -36
-126 -41 -150 -30 -170 12 -22 14 -19 50 55 l37 77 31 -66 c17 -36 31 -68 31
-70 0 -2 -18 -4 -39 -4 -83 0 -86 -5 -86 -121 l0 -104 55 -2 c137 -6 307 -45
325 -73 3 -5 -10 -3 -29 5 -148 62 -473 57 -637 -9 -32 -14 -59 -23 -59 -20 0
3 -8 0 -18 -5 -17 -9 -20 -2 -32 85 -9 71 -10 98 -1 107 12 12 14 3 12 -38 -1
-20 -1 -20 8 0 7 18 10 16 29 -20 12 -22 21 -34 22 -27 0 7 -19 49 -42 93
l-41 79 -26 -75 c-16 -50 -28 -71 -33 -62 -4 8 -21 20 -38 27 l-30 12 0 89 c0
53 -4 89 -10 89 -13 0 -13 116 0 140 8 14 5 35 -9 77 -10 32 -38 158 -61 281
-24 123 -46 218 -50 210 -4 -7 -13 -60 -19 -118 -21 -180 -54 -322 -94 -408
-15 -32 -17 -46 -8 -55 6 -6 11 -41 11 -79 0 -57 -3 -69 -20 -78 -11 -6 -25
-8 -30 -5 -6 4 -10 -21 -10 -64 0 -56 -3 -71 -15 -71 -18 0 -19 19 -15 270 1
102 7 183 13 195 6 11 10 34 9 50 -1 29 -1 29 7 5 8 -22 9 -21 10 14 1 27 -6
49 -24 72 -22 29 -25 42 -25 116 1 46 5 129 10 185 9 99 8 104 -16 146 -33 61
-124 587 -124 725 0 62 -4 92 -12 92 -8 0 -9 -32 -6 -117 3 -65 3 -145 -2
-178 l-7 -60 -2 48 c0 31 -5 46 -11 42 -6 -4 -8 -15 -5 -26 4 -11 2 -19 -5
-19 -8 0 -10 -9 -6 -24 3 -13 2 -26 -2 -28 -12 -5 -62 -271 -61 -324 1 -42 3
-38 10 28 5 42 16 103 24 135 l15 58 -4 -70 c-3 -65 -3 -67 6 -25 19 88 28 88
23 0 -7 -94 -23 -196 -37 -222 -8 -16 -2 -18 49 -19 l58 -2 -62 -8 c-71 -9
-83 -14 -83 -35 0 -11 5 -12 18 -5 9 5 43 12 74 16 63 8 116 -5 143 -34 16
-18 15 -18 -23 0 -47 23 -118 37 -109 22 4 -6 21 -14 39 -17 18 -3 48 -15 65
-26 30 -18 33 -24 33 -70 0 -54 -4 -58 -37 -35 -12 9 -40 22 -63 30 -35 12
-40 12 -40 0 0 -8 8 -15 17 -15 9 0 36 -9 60 -21 l43 -21 0 -100 c0 -99 0
-100 -23 -94 -12 3 -25 6 -28 6 -4 0 -9 27 -11 60 -5 67 -30 109 -48 80 -5 -8
-10 -43 -10 -76 0 -43 -4 -62 -12 -61 -65 2 -88 -4 -88 -23 0 -17 7 -20 53
-20 113 0 219 -54 209 -105 -3 -20 -9 -24 -21 -19 -93 41 -196 56 -230 35 -9
-6 15 -10 65 -13 52 -2 93 -10 119 -23 l40 -20 -4 -130 c-2 -71 -5 -131 -6
-133 -2 -2 -16 3 -32 11 -42 21 -90 28 -145 21 -71 -10 -58 -20 24 -20 52 0
84 -5 113 -19 41 -21 51 -40 41 -80 -6 -24 -7 -24 -47 -10 -45 16 -179 20
-179 6 0 -5 35 -11 77 -13 43 -2 92 -10 108 -18 27 -14 30 -21 33 -67 l3 -52
32 5 c57 10 57 10 57 76 0 52 4 65 20 75 18 12 19 9 22 -60 l3 -72 87 4 c60 2
88 0 88 -8 0 -6 -19 -11 -47 -11 -27 0 -93 -5 -148 -11 -55 -7 -117 -9 -137
-5 l-37 7 -3 57 c-3 49 -6 57 -23 57 -19 0 -20 -8 -23 -107 l-3 -108 -29 0
-30 0 0 71 c0 52 -3 70 -12 67 -9 -3 -14 -31 -16 -81 l-3 -77 64 1 c86 2 91
-2 83 -65 -6 -52 -6 -52 27 -61 25 -8 33 -16 35 -38 l3 -28 -21 21 c-11 11
-25 18 -30 15 -6 -4 -10 -46 -10 -96 l0 -89 -52 -1 c-29 0 -69 -7 -88 -14 -33
-12 -29 -13 46 -8 75 5 82 4 87 -13 4 -17 5 -17 6 -1 1 19 18 22 55 7 20 -7
26 -16 26 -40 0 -27 -2 -30 -19 -20 -33 17 -231 17 -231 0 0 -6 35 -10 85 -10
69 0 85 -3 85 -15 0 -12 -14 -15 -69 -15 -69 0 -101 -6 -101 -19 0 -3 41 -6
91 -6 75 1 93 4 101 18 7 14 13 15 29 6 20 -10 20 -10 0 -45 -19 -32 -21 -51
-21 -213 l0 -177 -42 -21 c-24 -12 -58 -24 -75 -28 -40 -8 -53 -25 -20 -25 47
0 48 -12 46 -284 l-2 -256 -26 1 c-17 1 -20 3 -8 6 26 7 21 22 -28 87 l-45 59
0 -187 c0 -174 1 -187 17 -175 15 13 16 9 9 -51 -4 -35 -12 -72 -17 -81 -5
-10 -9 -218 -9 -488 l0 -471 78 0 78 0 74 76 c79 79 199 182 238 203 43 23 22
-9 -55 -81 -43 -40 -107 -101 -143 -135 l-65 -63 138 0 c124 0 137 2 137 18 0
9 14 168 30 352 17 184 30 352 30 372 0 33 3 37 31 43 30 7 165 -1 201 -11 15
-5 16 -8 4 -27 -14 -22 -17 -49 -61 -437 -13 -118 -27 -236 -30 -263 l-6 -47
86 0 c83 0 85 1 85 24 0 13 9 183 20 377 22 409 35 700 50 1204 7 198 16 368
21 378 6 12 5 27 -6 47 -20 38 -2 39 30 2 21 -23 24 -24 22 -7 -1 11 -6 25
-10 32 -5 8 1 15 20 19 15 4 28 3 30 -3 2 -6 11 -19 19 -29 14 -18 15 -17 11
14 -3 29 -1 32 24 32 34 0 47 -27 16 -32 -17 -3 -15 -5 11 -9 28 -5 32 -3 32
18 0 19 5 23 31 23 28 0 31 -2 25 -24 -9 -37 10 -40 24 -5 10 24 18 29 34 25
12 -3 25 -6 30 -6 4 0 1 -11 -8 -25 -15 -23 -15 -26 -1 -31 10 -4 27 3 42 17
23 21 24 13 2 -17 -14 -18 -16 -1124 -2 -1113 25 21 39 -80 83 -606 25 -295
27 -305 51 -305 24 0 25 -4 -10 245 -56 394 -63 491 -68 874 l-5 364 38 -6
c22 -4 70 -7 107 -7 64 0 68 -1 62 -20 -6 -18 -2 -20 51 -20 l57 0 -7 -32 c-4
-18 -10 -54 -13 -80 -6 -48 -6 -48 -44 -48 -69 0 -69 0 -69 -126 0 -108 1
-114 26 -139 25 -25 25 -25 19 -3 -4 13 -11 27 -16 33 -5 5 -9 32 -9 61 l0 51
61 7 c34 3 86 6 115 6 29 0 65 5 80 10 15 6 28 9 30 7 2 -1 6 -40 10 -85 l7
-82 -101 0 c-55 0 -106 -2 -114 -5 -11 -4 -13 -96 -10 -505 1 -319 6 -500 12
-500 6 0 10 176 10 489 l0 489 31 6 c17 3 80 6 140 6 l109 0 0 -140 0 -140
-30 0 c-43 0 -104 -34 -132 -72 -23 -33 -23 -37 -26 -336 l-3 -302 808 1 808
0 -54 25 c-29 13 -57 24 -62 24 -4 0 -9 48 -11 106 l-3 106 120 -6 c66 -3 225
-9 352 -12 175 -5 236 -10 244 -20 7 -9 8 -39 4 -89 -7 -75 -8 -77 -48 -106
l-40 -29 219 1 c159 0 211 3 192 11 l-28 10 0 346 c0 191 -3 371 -6 400 -5 36
-3 52 5 52 6 0 11 -7 11 -15 0 -8 8 -15 19 -15 23 0 25 -31 43 -472 9 -247 15
-318 25 -318 7 0 13 3 13 8 -1 60 -31 665 -36 715 l-7 67 129 -1 c71 0 149 -4
174 -7 l45 -7 -3 -51 c-3 -40 0 -53 13 -57 22 -9 30 18 17 61 -12 37 -8 53 7
36 5 -5 14 -153 20 -329 7 -176 13 -345 14 -375 1 -40 6 -56 17 -58 13 -2 14
19 8 165 -13 331 -28 767 -25 769 1 1 23 4 48 8 l46 7 7 -168 c23 -643 30
-783 39 -783 6 0 7 47 3 123 -9 167 -27 829 -23 833 2 2 59 10 126 18 119 14
141 19 128 32 -5 5 -202 -13 -344 -33 l-43 -6 0 74 c0 84 15 198 27 210 4 4
78 15 163 24 183 19 200 22 200 42 0 9 -6 13 -14 10 -8 -3 -53 -9 -100 -13
l-86 -7 0 49 c1 45 2 48 15 30 14 -19 18 -19 88 -5 l72 15 -3 88 c-4 98 -14
136 -36 136 -19 0 -26 -22 -26 -84 0 -50 1 -52 28 -51 22 0 28 -5 30 -28 3
-22 -1 -27 -18 -27 -13 0 -24 -8 -27 -20 -8 -29 -30 -25 -36 8 -4 15 -16 71
-27 125 -11 54 -24 106 -30 117 -9 16 -5 19 43 24 112 14 127 18 127 32 0 17
-5 17 -113 -1 -48 -9 -92 -13 -97 -10 -6 3 -10 21 -10 40 0 39 -4 37 128 60
50 10 92 21 92 26 0 10 -23 7 -143 -17 -38 -8 -72 -14 -76 -14 -4 0 -11 107
-14 238 -4 130 -9 251 -13 267 l-6 31 121 33 c67 18 123 36 126 40 2 4 -2 26
-8 49 l-12 41 -16 -28 c-14 -25 -30 -31 -128 -56 -62 -15 -113 -26 -115 -24
-6 7 -27 472 -21 477 2 3 0 11 -7 19 -6 7 -8 16 -5 19 13 14 275 67 299 61 14
-4 18 1 18 24 0 22 -4 27 -16 22 -9 -3 -85 -23 -170 -43 l-154 -37 0 40 c0 38
1 40 15 21 14 -17 15 -14 13 49 -3 74 -4 73 67 79 29 3 30 2 36 -52 l5 -55 5
55 c5 62 29 77 40 25 5 -22 7 -24 8 -8 0 12 -4 34 -9 48 -9 23 -15 26 -48 23
l-37 -3 -3 123 -3 123 38 16 c49 21 144 29 172 14 20 -11 22 -18 19 -113 l-3
-100 -35 -12 c-34 -11 -35 -12 -40 -76 -4 -58 -7 -65 -27 -68 -13 -2 -23 -10
-23 -17 0 -11 7 -12 32 -4 18 5 34 9 35 9 2 0 3 29 3 65 0 57 2 65 19 65 11 0
25 2 33 5 10 4 12 -5 10 -37 -2 -24 1 -61 6 -83 7 -28 10 95 11 396 l1 435
-35 103 c-19 57 -46 146 -60 197 -14 52 -28 101 -31 109 -4 10 0 15 15 15 24
0 47 35 29 46 -6 4 -8 3 -5 -3 4 -6 -5 -15 -19 -22 -33 -15 -31 -16 -39 22 -4
17 -22 85 -41 149 -25 87 -36 155 -46 270 l-13 153 -6 -175 c-7 -195 -31 -343
-104 -635 l-42 -170 -5 110 c-3 101 -2 111 17 127 l20 16 -21 24 c-26 29 -53
94 -116 277 -90 264 -159 495 -162 549 -5 67 -12 76 -14 16z m-1 -313 l3 -153
-29 -21 c-23 -17 -28 -18 -23 -5 4 9 15 89 24 177 10 88 19 160 20 158 1 -1 4
-71 5 -156z m-514 7 c-3 -8 -6 -5 -6 6 -1 11 2 17 5 13 3 -3 4 -12 1 -19z
m-10 -40 c-3 -8 -6 -5 -6 6 -1 11 2 17 5 13 3 -3 4 -12 1 -19z m-10 -40 c-3
-8 -6 -5 -6 6 -1 11 2 17 5 13 3 -3 4 -12 1 -19z m478 -57 c-4 -34 -11 -61
-16 -61 -12 0 -11 5 2 74 15 73 23 65 14 -13z m-493 -65 c-7 -56 -6 -66 5 -61
18 6 13 -19 -32 -156 -37 -113 -50 -134 -62 -101 -8 21 -9 21 -20 -7 -6 -17
-7 -35 -2 -42 6 -10 9 -5 10 16 0 23 2 26 8 11 6 -17 10 -15 43 15 24 23 43
33 59 31 43 -6 41 -19 -4 -30 -24 -7 -49 -17 -55 -24 -16 -20 -27 -108 -13
-108 6 0 14 -1 18 -2 4 -2 6 16 5 39 -5 63 12 78 19 18 l6 -50 1 52 c2 48 4
52 33 62 18 6 41 11 52 11 17 0 19 -5 12 -47 -8 -58 -17 -70 -58 -79 -18 -3
-50 -15 -72 -26 -39 -20 -145 -60 -145 -54 0 18 94 285 109 309 20 32 62 185
78 277 11 68 15 22 5 -54z m1008 -272 c-7 -52 -9 -121 -5 -160 l6 -69 -31 -18
c-17 -11 -34 -17 -36 -14 -3 2 0 53 6 113 7 60 10 123 7 139 -3 21 -5 15 -6
-20 -1 -27 -8 -95 -17 -150 -9 -55 -19 -127 -23 -160 -5 -34 -14 -71 -20 -84
-7 -12 -10 -25 -7 -28 9 -10 33 58 41 113 6 45 10 53 39 67 l33 15 6 -75 c3
-41 7 -77 9 -78 2 -2 20 0 40 4 25 6 39 5 42 -3 2 -6 3 32 1 84 -3 83 -3 87 4
30 12 -99 16 -107 71 -125 63 -21 66 -38 3 -19 -25 8 -60 14 -77 14 -56 0
-165 -36 -221 -74 -68 -45 -82 -46 -33 -3 l36 32 -9 80 c-9 75 -8 89 23 207
18 70 35 122 39 117 3 -6 10 27 14 73 6 62 10 77 16 58 6 -19 8 -14 8 25 0 28
6 93 13 145 l13 95 13 -120 c11 -96 11 -139 2 -211z m-366 276 c22 -55 20 -73
-4 -30 l-18 35 -12 -30 c-49 -129 -68 -154 -118 -155 -26 0 101 215 129 219 4
1 14 -17 23 -39z m-2340 -188 c1 -130 -1 -145 -18 -158 -18 -13 -18 -16 -3
-76 9 -35 18 -74 21 -88 3 -14 3 0 1 30 -2 42 2 63 18 89 20 33 21 33 36 14 9
-10 21 -19 26 -19 6 1 11 -34 13 -79 l3 -80 -148 -2 c-105 -1 -160 -6 -190
-17 l-43 -15 24 47 c36 71 143 316 183 417 19 50 40 101 45 115 l11 25 10 -30
c5 -16 10 -94 11 -173z m2157 72 c-6 -31 -8 -60 -5 -65 3 -5 0 -8 -8 -7 -8 2
-14 -8 -16 -27 -2 -16 -17 -46 -33 -65 -21 -25 -29 -29 -25 -15 3 11 15 67 28
125 14 63 31 114 43 128 19 23 20 23 23 4 2 -12 -1 -46 -7 -78z m36 54 c-3 -8
-6 -5 -6 6 -1 11 2 17 5 13 3 -3 4 -12 1 -19z m174 -87 c16 -49 20 -77 16
-120 -4 -31 -3 -61 1 -67 4 -7 27 -18 51 -25 23 -7 44 -18 46 -23 2 -6 6 -24
9 -39 7 -28 6 -28 -21 -13 -15 7 -47 19 -70 25 l-43 12 0 74 c0 62 -4 79 -20
95 -24 24 -42 18 -71 -26 l-19 -29 0 46 c0 33 11 69 37 124 35 74 37 76 49 54
7 -13 23 -53 35 -88z m-1911 66 c0 -28 -5 -36 -35 -50 l-35 -17 0 44 c0 46 7
54 48 55 18 1 22 -4 22 -32z m-2573 -59 c-3 -8 -6 -5 -6 6 -1 11 2 17 5 13 3
-3 4 -12 1 -19z m3879 -92 c19 -37 33 -70 30 -73 -3 -3 -16 -3 -29 1 -32 8
-67 87 -60 135 6 38 8 37 59 -63z m-3899 62 c-3 -8 -6 -5 -6 6 -1 11 2 17 5
13 3 -3 4 -12 1 -19z m2801 -15 c63 -26 102 -61 102 -91 -1 -24 -2 -25 -11 -9
-6 11 -25 25 -42 32 -19 8 -32 21 -32 31 0 9 -6 19 -12 21 -7 3 -13 -3 -13
-12 0 -14 -9 -15 -68 -10 -78 8 -179 -13 -225 -46 l-28 -21 3 33 c4 40 34 63
108 84 63 17 161 12 218 -12z m1572 -88 c3 -44 6 -81 5 -81 0 -1 -10 -4 -21
-8 -27 -8 -34 13 -34 107 0 65 1 68 23 65 20 -3 22 -10 27 -83z m100 26 c5
-11 9 -48 8 -83 l-1 -63 -7 65 -7 65 -3 -60 -4 -60 -3 57 c-3 35 -10 61 -19
69 -14 12 -15 6 -9 -54 7 -61 6 -67 -10 -61 -24 10 -16 111 10 130 25 19 32
18 45 -5z m418 -87 c9 -7 14 -16 9 -20 -4 -4 -7 -2 -7 4 0 7 -7 12 -15 12 -8
0 -15 -9 -15 -20 0 -13 7 -20 20 -20 11 0 22 -6 24 -12 10 -32 13 -98 5 -98
-5 0 -9 13 -9 29 0 16 -3 37 -6 45 -6 15 -8 15 -19 -1 -23 -31 -28 -7 -19 89
7 69 10 82 12 49 2 -27 10 -50 20 -57z m-2078 64 c35 -18 46 -29 48 -50 l3
-28 -53 25 c-29 14 -59 25 -65 25 -7 0 -14 10 -14 23 l-2 22 -4 -22 c-4 -20
-11 -23 -51 -23 -26 -1 -65 -7 -87 -15 -22 -8 -41 -15 -43 -15 -1 0 1 12 4 26
5 19 4 25 -5 20 -6 -4 -11 -18 -11 -32 0 -28 -16 -33 -23 -6 -3 10 -5 4 -6
-13 -1 -25 -3 -27 -12 -13 -43 75 207 133 321 76z m1796 -28 c7 0 16 -4 19
-10 4 -6 -1 -7 -12 -4 -55 18 -73 28 -73 41 0 11 6 10 26 -6 15 -12 33 -21 40
-21z m-307 26 c-10 -9 -69 -36 -69 -32 0 7 52 35 64 36 5 0 7 -2 5 -4z m-1494
-69 l40 -23 3 -217 c2 -204 1 -225 -23 -330 -15 -62 -36 -160 -47 -219 -18
-94 -24 -108 -41 -108 -17 0 -19 5 -14 41 3 23 11 46 19 51 10 8 10 11 1 15
-7 2 -13 11 -13 19 0 8 -4 14 -10 14 -5 0 -10 12 -11 28 -1 22 -3 20 -10 -13
-13 -53 -29 -68 -29 -26 0 21 -4 30 -11 25 -6 -4 -9 -19 -5 -35 5 -25 3 -27
-8 -17 -8 7 -14 15 -14 18 1 24 -4 40 -12 40 -5 0 -10 -15 -10 -34 0 -25 5
-35 20 -39 18 -5 19 -11 14 -69 -7 -82 -9 -86 -36 -91 -13 -2 -2 -4 25 -4 45
0 47 1 47 28 0 25 4 29 29 29 16 0 36 3 44 6 10 3 18 -2 22 -15 9 -29 25 -16
25 19 0 25 5 31 38 40 20 6 59 10 87 8 47 -3 50 -5 55 -33 4 -20 8 -26 13 -17
20 31 27 4 27 -113 0 -75 -4 -125 -10 -125 -5 0 -17 11 -26 25 -22 33 -34 32
-34 -4 0 -40 -16 -48 -25 -13 l-7 27 -10 -25 c-7 -18 -12 -21 -15 -10 -2 8 -6
21 -9 28 -3 10 -16 4 -44 -18 -39 -31 -40 -31 -40 -9 0 12 8 28 18 35 16 13
16 13 0 14 -14 0 -18 9 -18 36 l0 36 -72 -7 c-87 -7 -168 -22 -223 -40 -22 -7
-52 -15 -67 -19 l-28 -6 0 84 c0 74 3 87 19 96 11 5 24 10 30 10 15 0 14 -28
-1 -33 -13 -4 13 0 63 10 27 5 29 3 29 -27 0 -21 4 -30 13 -27 8 2 11 21 9 60
l-4 57 30 0 c17 0 34 4 37 10 4 6 -6 7 -25 4 -26 -6 -30 -4 -30 15 0 12 -6 21
-15 21 -10 0 -15 -10 -15 -34 0 -25 -5 -35 -20 -39 -19 -5 -20 0 -20 174 0
113 4 179 10 179 6 0 10 12 10 26 0 14 -4 23 -10 19 -7 -4 -10 73 -10 223 0
227 0 229 24 251 32 30 67 39 156 40 60 1 83 -4 115 -22z m1495 -10 c0 -32 -4
-35 -62 -60 -34 -15 -63 -25 -65 -23 -2 2 -1 14 2 28 5 21 93 87 118 88 4 0 7
-15 7 -33z m-919 -38 c17 -9 19 -22 19 -127 -1 -85 -4 -122 -15 -136 -15 -20
-20 -19 -80 20 -37 23 -36 21 13 -23 l52 -48 0 -167 c0 -100 -4 -169 -10 -173
-5 -3 -10 -27 -10 -52 0 -44 -1 -45 -18 -30 -10 10 -26 17 -35 17 -15 0 -17
-12 -17 -80 l0 -80 -35 0 -35 0 0 85 c0 50 -4 85 -10 85 -5 0 -10 24 -10 54 0
30 -4 58 -10 61 -6 4 -10 -14 -10 -47 l0 -53 -40 0 -40 -1 0 172 0 172 55 23
55 23 0 87 c0 48 3 95 7 104 5 15 3 16 -13 6 -10 -6 -30 -20 -44 -31 l-25 -21
33 16 c17 8 32 12 32 7 0 -12 -49 -34 -61 -27 -5 4 -9 35 -9 70 0 57 3 66 24
80 50 33 187 41 237 14z m999 3 c0 -5 24 -14 53 -20 100 -23 198 -55 190 -63
-4 -4 -53 3 -108 16 -55 14 -114 25 -131 25 -33 0 -120 -27 -172 -54 -21 -11
-33 -13 -38 -5 -11 18 19 39 107 75 90 36 99 38 99 26z m0 -184 c0 -73 3 -178
6 -233 l6 -100 -21 33 c-11 17 -24 32 -29 32 -25 0 -103 -34 -118 -52 -19 -21
-19 -21 4 -9 13 7 41 19 63 26 l40 15 15 -35 c21 -50 18 -59 -26 -84 -22 -12
-40 -24 -40 -26 0 -5 39 9 78 28 37 18 62 11 62 -18 0 -37 -11 -55 -34 -56
-11 0 -15 -3 -8 -6 8 -3 13 -32 14 -86 l2 -82 3 78 c6 131 23 88 23 -58 0
-128 -1 -135 -20 -135 -12 0 -20 -7 -20 -17 0 -12 -19 -27 -53 -43 -34 -16
-52 -31 -51 -42 1 -13 -9 -17 -47 -20 l-49 -3 0 47 0 47 118 38 c64 20 110 38
102 40 -8 2 -62 -12 -120 -31 l-105 -33 -3 82 c-3 78 -1 87 30 143 18 32 38
60 43 60 19 3 12 27 -16 52 l-28 25 -3 243 c-3 234 -2 244 17 254 21 12 145
57 158 58 4 0 7 -60 7 -132z m141 97 c56 -13 103 -26 105 -27 2 -3 3 -212 1
-343 0 -32 10 -79 28 -128 15 -43 25 -80 22 -84 -4 -3 -21 -2 -39 3 -28 8 -40
23 -75 88 -23 43 -40 83 -37 87 3 5 3 9 1 9 -3 0 -20 -23 -37 -51 l-33 -51
-27 29 -28 28 -5 233 c-5 193 -4 232 8 232 8 0 60 -11 116 -25z m-509 -10
c102 -21 138 -34 138 -50 0 -10 -9 -10 -47 1 -70 20 -221 42 -230 34 -4 -4
-28 -14 -53 -23 -25 -8 -71 -27 -102 -41 -32 -14 -58 -22 -58 -17 0 29 172
107 240 109 22 1 72 -5 112 -13z m-2527 -183 c-7 -99 -8 -104 -32 -113 -14 -5
-27 -8 -29 -6 -6 6 20 107 28 107 3 0 8 -8 10 -17 3 -13 6 -10 10 10 4 20 1
27 -9 27 -9 0 -13 6 -10 15 4 8 12 42 19 77 17 83 23 41 13 -100z m2566 122
l66 -15 7 -151 c5 -112 3 -154 -6 -165 -9 -11 -9 -16 2 -23 8 -5 18 -6 22 -4
4 3 8 -15 8 -40 0 -28 4 -46 12 -46 6 0 9 -3 6 -6 -4 -3 -48 6 -100 19 -51 14
-112 31 -135 37 -41 10 -43 13 -43 47 0 40 -10 38 110 18 31 -6 33 -5 18 8
-14 11 -18 34 -20 108 -4 122 -22 124 -26 2 -1 -51 -7 -93 -11 -93 -5 0 -23 3
-40 6 l-31 7 -2 151 -2 151 -3 -127 c-3 -120 -5 -128 -23 -128 -18 0 -20 7
-20 59 0 33 -3 62 -7 64 -5 3 -6 -17 -5 -43 2 -27 -1 -57 -7 -67 -8 -14 -10
-5 -11 44 0 53 -2 61 -16 56 -12 -4 -15 -18 -12 -61 2 -37 -1 -57 -9 -59 -9
-3 -13 21 -16 89 l-3 93 -2 -96 c-2 -91 -3 -97 -24 -103 -58 -15 -58 -15 -58
103 l0 109 76 32 c41 17 85 35 97 40 26 12 117 4 208 -16z m857 -41 c2 -35 -1
-63 -5 -63 -4 0 -19 -3 -32 -7 -19 -5 -23 -3 -19 8 3 8 2 37 -2 64 -9 60 -6
67 28 63 26 -3 27 -6 30 -65z m-1732 -99 c-3 -7 -20 -17 -38 -22 -18 -6 -41
-13 -50 -17 -16 -6 -18 0 -16 61 l1 69 7 -60 7 -60 1 66 2 66 43 9 42 9 3 -54
c2 -29 1 -60 -2 -67z m-958 101 c93 -19 178 -60 200 -97 23 -39 7 -46 -28 -13
-17 16 -30 24 -30 18 0 -7 14 -21 30 -33 17 -12 30 -26 30 -32 0 -5 -13 2 -30
15 -16 14 -46 31 -65 38 -36 13 -43 23 -25 34 6 3 10 10 10 16 0 5 -4 9 -10 9
-5 0 -10 -6 -10 -14 0 -14 -21 -26 -43 -26 -8 0 -8 3 1 9 8 4 -43 7 -115 6
-132 -2 -206 -17 -288 -56 -38 -19 -39 -19 -16 -1 54 43 224 79 331 68 l55 -5
-55 12 c-33 8 -75 10 -105 6 -79 -12 -93 -10 -98 9 -4 14 -5 14 -6 -3 -1 -15
-13 -24 -46 -34 -25 -7 -62 -24 -82 -38 -35 -24 -64 -23 -30 1 9 7 17 17 17
21 0 5 -9 0 -20 -10 -10 -9 -18 -25 -17 -34 1 -9 -2 -18 -8 -21 -24 -12 -14
40 15 73 70 80 264 116 438 82z m64 -123 c63 -22 128 -64 110 -70 -9 -3 -12
-48 -12 -153 0 -135 -6 -170 -24 -140 -4 5 -27 16 -53 25 -56 19 -49 8 9 -14
22 -8 47 -25 56 -38 l15 -22 -54 25 c-30 13 -74 27 -99 30 -72 10 -91 15 -85
24 7 12 -20 21 -66 21 -34 0 -39 3 -40 23 l0 22 -16 -22 c-11 -17 -25 -23 -54
-23 -45 0 -136 -32 -173 -61 -37 -29 -32 -6 4 25 27 22 86 46 115 46 6 0 9 41
7 110 -4 108 -3 110 20 119 39 15 47 -3 51 -107 l3 -97 2 106 2 105 -45 22
c-54 26 -62 27 -41 6 12 -11 13 -20 6 -33 -5 -10 -10 -63 -11 -117 l-1 -100
-59 -20 -59 -21 0 127 c0 118 1 128 23 148 29 27 108 60 171 72 80 14 232 5
298 -18z m1885 -114 c-2 -29 -3 -8 -3 47 0 55 1 79 3 53 2 -26 2 -71 0 -100z
m866 77 c13 -5 17 -19 17 -52 0 -41 -1 -44 -22 -37 -69 22 -88 22 -99 2 -13
-24 -8 -70 9 -76 8 -2 12 9 12 37 0 32 3 39 15 35 11 -5 13 -16 9 -45 -4 -25
-3 -39 4 -39 12 0 26 55 18 68 -3 5 6 7 20 4 22 -4 25 -8 19 -31 -4 -14 -13
-30 -20 -34 -11 -6 -12 -14 -5 -33 6 -14 10 -40 10 -59 l0 -33 -77 0 c-55 1
-95 -6 -138 -21 -32 -11 -61 -21 -62 -21 -2 0 -3 17 -3 38 0 20 -5 57 -11 81
-6 28 -6 48 0 54 5 5 12 -3 16 -22 4 -17 11 -31 16 -31 12 0 11 12 -1 44 -8
21 -6 27 10 36 18 10 20 7 20 -25 0 -19 5 -35 10 -35 6 0 10 18 10 40 0 22 2
40 4 40 2 0 11 3 19 6 10 4 16 -5 21 -30 4 -23 11 -33 20 -30 15 6 6 80 -10
78 -32 -4 -123 -38 -144 -54 -22 -16 -23 -21 -12 -47 l12 -28 -21 24 c-11 14
-18 33 -16 43 3 10 1 18 -3 18 -22 0 -21 43 1 66 68 73 251 108 352 69z
m-2153 -202 c-8 -113 -18 -186 -27 -200 l-13 -23 33 16 c40 19 102 7 132 -26
18 -20 18 -20 -14 -9 -34 12 -150 8 -185 -7 -16 -6 -18 -4 -12 12 4 10 14 57
22 104 19 115 66 321 72 316 2 -3 -1 -85 -8 -183z m723 105 c-2 -5 -8 -8 -14
-8 -11 0 -12 43 -2 54 9 8 22 -34 16 -46z m-15 -23 c9 3 29 9 43 12 24 5 26 2
33 -42 10 -74 8 -85 -16 -94 -22 -8 -23 -5 -28 42 -4 38 -9 51 -22 53 -14 2
-18 -5 -18 -34 0 -60 -7 -31 -12 48 -3 41 -3 60 -1 42 3 -27 8 -32 21 -27z
m67 46 c-3 -6 -14 -10 -23 -10 -15 1 -15 2 1 6 9 2 17 9 17 15 0 6 3 9 6 5 3
-3 3 -10 -1 -16z m-2175 -12 c0 -11 -10 -23 -22 -28 -29 -11 -38 -6 -38 22 0
17 6 22 30 24 24 2 30 -2 30 -18z m2388 -38 c2 -37 -1 -57 -10 -62 -26 -17
-45 -9 -56 24 l-10 32 -1 -37 c-2 -66 -21 -41 -21 26 0 71 4 76 60 73 l35 -2
3 -54z m-118 -10 c0 -27 2 -56 6 -64 4 -10 -6 -17 -35 -25 l-41 -10 0 68 c0
63 2 69 23 73 46 9 47 8 47 -42z m-2133 -32 c41 -21 48 -29 51 -58 4 -38 -13
-65 -24 -38 -7 20 -30 22 -37 5 -3 -7 -6 -3 -6 10 -1 19 -6 22 -46 22 -41 0
-45 2 -45 25 0 32 -27 34 -32 3 -2 -15 -10 -24 -23 -24 -11 -1 -26 -2 -33 -3
-7 -1 -10 -5 -7 -11 3 -6 -1 -7 -9 -4 -9 3 -14 10 -11 14 3 5 1 12 -5 15 -6 4
-9 2 -8 -4 2 -5 -14 -19 -34 -29 l-38 -20 0 48 c0 53 6 58 75 66 22 3 42 8 45
11 13 13 142 -6 187 -28z m2550 -51 c-2 -13 -4 -5 -4 17 -1 22 1 32 4 23 2
-10 2 -28 0 -40z m358 -4 l4 -49 -14 31 c-8 17 -11 41 -8 53 8 31 14 20 18
-35z m-925 -29 c0 -60 -3 -75 -15 -75 -11 0 -15 12 -15 50 0 28 5 50 10 50 6
0 10 11 10 25 0 14 2 25 5 25 3 0 5 -34 5 -75z m-3214 -21 c-6 -70 -6 -76 10
-70 21 8 34 -10 33 -44 l-1 -25 -7 25 c-5 18 -13 24 -27 22 -25 -5 -25 -4 -31
-52 -4 -27 -13 -44 -26 -52 -18 -9 -19 -8 -14 13 4 13 19 77 34 141 16 65 30
118 32 118 2 0 1 -34 -3 -76z m-353 59 c-13 -2 -33 -2 -45 0 -13 2 -3 4 22 4
25 0 35 -2 23 -4z m4002 -35 c61 -17 112 -34 113 -39 2 -5 9 -6 15 -3 8 5 9 3
2 -4 -7 -8 -31 -6 -85 8 -41 10 -101 23 -132 30 -38 7 -58 17 -61 28 -3 12 -5
10 -6 -5 -1 -20 -7 -23 -39 -23 -34 0 -159 -28 -206 -46 -12 -4 -16 -1 -16 15
0 22 37 36 172 66 74 16 97 14 243 -27z m-3910 22 c25 -11 -1 -11 -35 0 -20 6
-21 8 -5 8 11 0 29 -3 40 -8z m4922 -57 c-2 -16 -4 -5 -4 22 0 28 2 40 4 28 2
-13 2 -35 0 -50z m-529 -5 c8 -10 24 -18 34 -18 26 0 38 -39 38 -121 0 -62 -2
-70 -17 -65 -10 3 -30 8 -45 12 -25 5 -28 11 -28 49 0 23 -4 66 -10 95 -5 28
-7 64 -3 79 6 22 8 23 11 6 2 -11 11 -28 20 -37z m-2988 32 c0 -11 -21 -11
-65 0 -27 7 -25 8 18 9 26 0 47 -3 47 -9z m-170 -10 c-8 -5 -19 -10 -25 -10
-5 0 -3 5 5 10 8 5 20 10 25 10 6 0 3 -5 -5 -10z m230 0 c0 -5 -8 -10 -17 -10
-15 0 -16 2 -3 10 19 12 20 12 20 0z m-45 -18 l60 -17 3 -153 c2 -140 1 -152
-15 -152 -39 0 -42 12 -46 165 l-3 150 -2 -151 -2 -151 -51 -5 c-77 -8 -83
-26 -7 -23 101 4 128 -3 128 -31 0 -31 -13 -30 -38 1 l-19 24 -6 -52 c-3 -29
-20 -115 -38 -191 -32 -133 -34 -138 -46 -108 -7 17 -14 77 -15 135 -3 94 -5
103 -21 99 -11 -3 -16 -10 -13 -19 4 -8 3 -20 -1 -26 -12 -19 -19 42 -13 106
6 56 5 58 -16 53 l-22 -6 -2 179 c-1 164 1 180 17 184 37 10 110 5 168 -11z
m2335 -221 l0 -228 -79 -6 c-43 -3 -97 -14 -120 -23 -23 -9 -43 -15 -45 -13
-2 2 -6 104 -8 227 l-4 223 71 20 c38 12 75 22 80 24 6 2 31 4 58 4 l47 1 0
-229z m155 204 c39 -9 77 -20 84 -24 20 -13 30 -446 10 -439 -10 3 -16 34 -21
114 -11 170 -15 179 -16 42 l-2 -128 -100 0 -100 0 0 231 0 232 38 -6 c20 -4
69 -14 107 -22z m-1960 5 l50 0 0 -40 1 -40 -53 0 -53 0 0 36 0 37 -59 -6
c-65 -5 -138 -34 -170 -66 -12 -12 -21 -17 -21 -13 0 13 41 48 80 67 37 19
123 35 155 29 11 -2 43 -4 70 -4z m2377 -162 c3 -107 1 -138 -9 -138 -10 0
-13 34 -13 147 0 186 17 179 22 -9z m-1052 90 c0 -53 -23 -46 -30 9 -5 35 -4
39 12 35 14 -3 18 -14 18 -44z m1623 38 c9 -7 17 -20 17 -29 0 -12 -7 -15 -35
-10 -41 7 -147 -12 -188 -34 -26 -13 -31 -13 -48 3 -30 27 -19 46 36 65 61 22
192 25 218 5z m-367 -10 c26 -8 34 -59 34 -228 0 -108 -1 -117 -20 -123 -17
-5 -20 -15 -20 -61 0 -36 -4 -54 -12 -54 -7 0 -23 -3 -35 -6 -22 -6 -23 -4
-23 54 0 51 -4 66 -26 92 -19 22 -32 29 -48 25 -11 -2 -15 -2 -9 1 10 4 11 24
6 76 l-6 71 34 -6 c19 -3 44 -9 56 -13 21 -6 21 -5 16 91 -7 107 -12 99 53 81z
m-2663 -30 l-2 -29 107 5 c113 5 192 -8 221 -36 13 -14 13 -22 1 -68 -8 -29
-13 -90 -13 -135 l2 -82 -32 7 c-18 3 -48 7 -67 7 -31 0 -35 -3 -38 -27 -4
-30 -5 -31 -50 -22 -18 4 -34 15 -41 30 -8 19 -18 24 -46 24 -31 0 -35 -3 -35
-25 0 -28 -4 -31 -72 -40 -48 -6 -48 -6 -48 23 0 39 -7 43 -47 27 -20 -8 -37
-15 -39 -15 -2 0 -5 37 -7 83 l-3 82 -2 -93 c-2 -89 -1 -93 18 -87 16 5 20 2
20 -18 0 -16 -7 -26 -20 -30 -16 -4 -20 0 -20 19 0 13 -4 24 -10 24 -6 0 -10
38 -10 95 0 78 3 95 15 95 12 0 15 15 15 74 0 72 1 75 31 96 35 26 43 22 41
-22 -2 -54 8 -88 24 -81 10 4 14 23 14 70 0 40 -4 62 -10 58 -5 -3 -10 -2 -10
4 0 13 27 19 75 18 38 -2 40 -4 38 -31z m263 19 c51 -15 93 -39 84 -49 -3 -3
-28 1 -55 9 -26 8 -70 15 -97 15 -41 0 -48 3 -48 20 0 25 43 27 116 5z m1342
-10 c7 -14 12 -33 12 -43 0 -14 -2 -14 -14 -2 -18 18 -32 70 -19 70 6 0 15
-11 21 -25z m-434 -8 c16 -12 17 -39 14 -387 -3 -374 -3 -375 -28 -435 -22
-52 -29 -60 -54 -63 -37 -5 -46 10 -46 76 l0 52 40 0 c22 0 40 5 40 10 0 6
-20 10 -45 10 l-45 0 0 95 c0 80 3 98 19 114 11 11 24 29 30 40 14 25 14 111
1 111 -5 0 -10 -19 -11 -42 0 -33 -2 -38 -9 -23 -5 11 -9 77 -9 146 l-1 126
25 -5 25 -4 0 89 c0 49 3 93 7 96 10 11 27 8 47 -6z m286 -103 c0 -61 -4 -93
-10 -89 -5 3 -10 46 -10 96 0 53 4 89 10 89 6 0 10 -39 10 -96z m-112 74 c7
-7 13 -37 14 -67 l2 -56 3 52 c3 44 7 51 23 50 18 -1 20 -9 20 -64 l0 -63 -27
6 c-66 14 -63 10 -63 85 0 69 5 80 28 57z m-628 -44 c0 -19 -5 -25 -17 -22
-22 4 -30 38 -12 49 19 11 29 2 29 -27z m2081 -119 c1 -104 -1 -120 -15 -123
-13 -3 -16 6 -16 55 0 32 -3 96 -6 143 l-6 85 20 -20 c19 -18 21 -33 23 -140z
m-3911 115 c0 -5 -13 -16 -30 -25 -33 -17 -38 -11 -13 17 17 19 43 24 43 8z
m287 -62 c-3 -7 -5 -2 -5 12 0 14 2 19 5 13 2 -7 2 -19 0 -25z m1533 23 c0 -6
-4 -13 -10 -16 -5 -3 -10 1 -10 9 0 9 5 16 10 16 6 0 10 -4 10 -9z m-2280 -11
c12 -8 10 -10 -10 -10 -14 -1 -43 -7 -65 -15 -50 -18 -57 -12 -14 14 37 23 66
26 89 11z m531 -10 c21 -12 26 -40 6 -40 -7 0 -18 5 -25 12 -9 9 -12 0 -12
-40 l0 -52 -40 0 c-38 0 -39 1 -34 29 3 16 1 37 -5 48 -8 15 -10 9 -11 -29 0
-27 -5 -48 -11 -48 -17 0 -8 109 10 120 22 13 98 12 122 0z m1594 0 c-3 -5
-16 -10 -28 -9 -21 0 -21 1 -2 9 28 12 37 12 30 0z m-2091 -30 c24 -9 26 -14
26 -70 0 -33 -3 -60 -7 -60 -65 -3 -132 -10 -145 -15 -16 -6 -18 0 -18 63 0
68 1 71 28 80 36 14 84 14 116 2z m723 -32 c-3 -7 -5 -2 -5 12 0 14 2 19 5 13
2 -7 2 -19 0 -25z m2400 0 c-3 -7 -5 -2 -5 12 0 14 2 19 5 13 2 -7 2 -19 0
-25z m-187 -3 c19 -17 20 -30 20 -187 l0 -168 -41 0 c-24 0 -38 -4 -34 -10 3
-5 22 -10 41 -10 38 0 47 -16 12 -23 -22 -3 -22 -4 5 -15 15 -6 27 -19 27 -29
0 -16 -8 -18 -70 -15 l-70 4 0 128 0 128 -35 26 -35 27 0 86 0 86 80 -5 c58
-3 85 -10 100 -23z m1075 -55 c17 -7 14 -9 -13 -9 -20 -1 -31 3 -27 9 7 12 13
12 40 0z m-3588 -25 c0 -10 -11 -15 -34 -15 -23 0 -33 5 -33 15 0 10 10 15 33
15 23 0 34 -5 34 -15z m53 5 c0 -5 -9 -10 -20 -10 -11 0 -20 5 -20 10 0 6 9
10 20 10 11 0 20 -4 20 -10z m1850 -52 c0 -29 3 -64 7 -77 4 -18 2 -22 -8 -19
-8 3 -16 17 -19 33 -8 43 -28 43 -32 -1 -4 -49 -25 -56 -33 -11 -5 26 -11 34
-24 30 -13 -3 -16 -12 -13 -39 3 -26 1 -34 -12 -34 -15 0 -20 18 -19 58 1 8
-6 11 -21 6 -26 -8 -45 -24 -28 -24 7 0 12 -12 12 -26 0 -19 -5 -25 -17 -22
-27 5 -43 48 -41 103 l3 50 60 11 c33 7 88 12 123 13 l62 1 0 -52z m-1882 15
c-10 -2 -26 -2 -35 0 -10 3 -2 5 17 5 19 0 27 -2 18 -5z m3601 -8 c5 -6 11
-88 15 -184 l6 -174 -25 17 c-14 9 -45 19 -70 23 -38 5 -45 3 -50 -13 -4 -11
-21 -51 -40 -90 l-34 -72 35 -7 c20 -3 41 -8 48 -11 8 -3 19 11 29 36 9 24 22
40 32 40 18 0 15 -7 -22 -57 -15 -20 -22 -39 -19 -55 3 -12 10 -180 16 -373 6
-192 12 -374 15 -403 3 -44 1 -51 -10 -42 -11 9 -33 -28 -116 -192 -56 -112
-110 -213 -120 -226 -10 -13 -15 -30 -12 -38 3 -8 -1 -14 -9 -14 -16 0 -28
116 -28 273 l0 77 39 0 c22 0 43 4 46 10 3 5 3 86 -1 180 l-7 170 -39 -6 -38
-7 0 119 c0 66 -3 210 -7 322 l-6 202 65 0 c65 0 66 0 72 31 3 17 6 56 6 85 0
47 2 54 20 54 18 0 20 7 21 78 2 92 2 71 -6 164 l-7 77 33 10 c40 12 155 9
168 -4z m-4006 -17 c13 -7 17 -22 17 -74 0 -48 -3 -65 -12 -61 -9 2 -13 24
-13 60 0 31 -4 56 -10 56 -6 0 -9 -22 -7 -54 l4 -55 -46 0 -45 0 -3 57 c-2 34
-8 58 -15 61 -10 3 -13 -14 -13 -62 0 -59 -2 -66 -20 -66 -18 0 -20 7 -20 70
l0 69 33 10 c35 11 121 4 150 -11z m355 -41 c2 33 7 43 23 48 11 4 23 4 26 1
3 -2 -7 -37 -22 -75 l-28 -71 -14 28 c-8 15 -13 46 -11 69 2 22 0 39 -4 36 -5
-2 -8 0 -8 6 0 5 6 11 13 14 8 2 14 -13 18 -47 6 -51 6 -51 7 -9z m793 -112
c17 -55 42 -121 55 -147 23 -46 24 -53 24 -303 0 -196 -3 -256 -12 -259 -7 -2
-42 -10 -78 -19 -73 -17 -125 -36 -119 -41 2 -3 40 4 84 15 44 10 90 19 103
19 l22 0 0 -365 c0 -353 -1 -365 -19 -365 -11 0 -25 -2 -33 -5 -10 -4 -13 20
-13 121 -1 120 -2 127 -24 145 -32 26 -47 24 -68 -8 -14 -21 -19 -53 -22 -145
l-3 -118 -50 0 -50 0 3 127 c3 108 2 128 -11 130 -77 10 -91 15 -81 27 6 8 32
19 56 26 l45 13 0 47 c0 33 -5 50 -15 54 -8 3 -14 16 -14 28 2 31 -18 124 -31
148 -14 27 -14 28 30 35 57 10 50 23 -10 17 l-50 -5 0 96 c0 91 1 96 26 116
15 12 38 21 53 21 31 0 46 10 46 30 0 8 4 105 9 215 7 187 16 242 35 231 4 -3
8 0 8 7 2 24 50 129 56 120 7 -10 47 -153 47 -165 0 -5 -9 -8 -20 -8 -14 0
-20 7 -20 23 -1 57 -31 55 -32 -3 -1 -17 -4 -30 -8 -30 -4 0 -15 -17 -24 -39
-16 -35 -17 -41 -2 -69 9 -17 25 -37 35 -44 14 -10 20 -27 21 -63 2 -28 0 -57
-3 -65 -3 -8 -7 -52 -9 -97 l-3 -83 27 0 c53 0 58 7 57 79 -1 88 -10 115 -37
119 -19 3 -22 9 -22 53 0 44 3 51 26 59 20 8 24 15 19 31 -4 12 0 37 10 60 19
42 19 41 -45 239 l-18 55 -21 -50 c-45 -103 -54 -120 -58 -108 -3 7 7 52 21
100 14 49 29 108 32 133 l7 45 19 -40 c10 -22 32 -85 49 -140z m879 131 c0
-41 -2 -45 -31 -51 -29 -7 -31 -9 -24 -43 l7 -37 -21 20 c-12 10 -19 25 -17
32 3 7 0 12 -7 10 -19 -3 -21 67 -2 83 12 10 55 25 88 29 4 1 7 -19 7 -43z
m947 -16 c13 0 13 -3 3 -15 -21 -25 -30 -17 -29 23 1 23 3 28 6 15 2 -13 11
-23 20 -23z m1259 -5 c1 -30 -3 -45 -12 -45 -7 0 -19 -3 -28 -6 -13 -5 -16 2
-16 41 0 25 4 44 8 41 4 -2 14 -1 22 5 23 14 25 12 26 -36z m-2846 -28 c131
15 129 14 132 36 2 14 11 23 26 25 18 3 22 -1 22 -22 0 -22 4 -26 33 -27 77
-2 173 -22 233 -48 63 -28 54 -32 -18 -8 -91 29 -327 36 -435 12 -43 -10 -90
-24 -105 -31 -40 -20 -35 2 5 26 17 11 40 20 50 20 13 0 17 8 17 33 0 46 14
56 20 15 3 -21 10 -32 20 -31z m-688 -32 l-3 -85 -55 0 -54 0 0 79 c0 88 1 89
70 90 l45 1 -3 -85z m1030 60 c4 -16 1 -25 -8 -25 -17 0 -27 17 -20 35 8 23
23 18 28 -10z m78 3 c0 -7 -5 -20 -10 -28 -8 -12 -11 -11 -16 8 -5 18 -9 20
-15 10 -7 -10 -9 -9 -9 5 0 12 8 17 25 17 14 0 25 -6 25 -12z m574 -111 c5 12
14 19 20 17 7 -3 28 15 47 40 19 25 38 46 42 46 5 0 7 -3 5 -7 -36 -71 -49
-106 -40 -115 16 -16 31 -1 38 38 13 69 18 21 18 -176 1 -110 1 -200 1 -200 0
0 -22 7 -49 15 -27 8 -70 14 -95 14 -46 -1 -46 -1 14 -10 62 -9 159 -38 152
-45 -2 -3 -17 0 -33 6 -16 7 -86 14 -155 17 -135 6 -252 -6 -351 -37 -32 -10
-58 -14 -58 -9 0 23 107 56 224 68 48 5 90 12 94 15 16 17 -218 -14 -298 -39
-13 -4 -15 18 -12 164 l3 169 32 5 c18 2 70 14 117 26 47 11 115 23 153 27 58
5 67 8 67 26 0 11 10 28 23 38 l22 18 6 -66 c4 -49 8 -61 13 -45z m1410 97 c3
-9 6 -46 6 -83 l0 -68 -152 -7 c-224 -10 -427 -32 -563 -61 -66 -13 -123 -25
-127 -25 -5 0 -8 38 -8 85 l0 84 43 11 c23 6 55 15 71 20 53 18 56 15 56 -50
l0 -60 33 0 c24 0 28 3 17 10 -8 5 -12 10 -8 10 3 0 14 3 24 7 13 5 15 3 9 -7
-5 -8 -3 -11 6 -8 10 4 13 20 11 65 -4 69 0 73 96 73 l52 0 0 -60 0 -60 60 0
60 0 0 59 0 58 57 7 c64 7 73 1 73 -51 0 -33 0 -33 50 -33 l50 0 0 50 0 50 39
0 c26 0 41 -5 45 -16z m-1762 -44 c0 -11 1 -25 2 -32 2 -23 -21 -18 -33 8 -10
22 -9 29 1 35 20 13 28 11 30 -11z m381 0 c-3 -11 -7 -20 -9 -20 -2 0 -4 9 -4
20 0 11 4 20 9 20 5 0 7 -9 4 -20z m-1153 0 c0 -5 -4 -10 -10 -10 -5 0 -10 5
-10 10 0 6 5 10 10 10 6 0 10 -4 10 -10z m471 -14 c42 -8 98 -23 124 -35 44
-19 47 -23 40 -48 -9 -40 -20 -47 -46 -30 -34 22 -135 46 -222 53 -129 11
-294 -23 -349 -73 -16 -14 -18 -14 -23 0 -4 8 -5 30 -3 49 2 27 10 36 42 51
94 44 291 59 437 33z m2479 -29 c0 -13 3 -58 6 -100 l7 -77 -42 0 c-57 0 -52
-18 7 -22 l47 -3 10 -195 c9 -185 11 -197 37 -240 l27 -45 3 -275 3 -275 -100
-16 c-55 -9 -101 -16 -103 -14 -4 3 -21 412 -22 502 l0 62 52 7 c39 5 48 9 33
15 -11 4 -37 8 -57 8 -26 1 -38 6 -38 15 0 8 16 18 38 23 l37 9 3 59 c1 33 -1
98 -5 145 l-8 85 -38 -2 c-34 -2 -37 0 -37 23 0 14 -4 33 -9 42 -11 23 3 168
22 217 10 25 22 39 31 39 9 -1 14 2 11 6 -6 9 39 28 68 29 11 1 17 -6 17 -22z
m-3891 -29 c0 -22 -1 -22 -9 -3 -7 17 -9 15 -9 -12 -2 -58 -31 -46 -31 13 0
19 5 24 25 24 19 0 25 -5 24 -22z m-309 -25 c1 -24 2 -26 11 -10 5 9 7 22 4
27 -3 6 -3 10 2 10 21 -1 29 -19 25 -62 -3 -35 -7 -45 -18 -41 -8 3 -14 13
-14 22 -1 14 -2 14 -11 -1 -17 -30 -24 -20 -24 32 0 34 4 50 12 50 7 0 13 -12
13 -27z m148 2 c1 -14 -3 -25 -8 -25 -11 0 -14 33 -3 43 9 9 8 10 11 -18z
m-248 -4 c0 -11 5 -23 10 -26 6 -4 10 5 10 19 0 19 5 26 20 26 17 0 20 -6 19
-42 -1 -28 -3 -34 -6 -18 l-5 24 -13 -24 c-8 -16 -10 -33 -4 -54 12 -41 27
-53 21 -17 -4 30 -4 30 34 24 61 -9 74 -19 74 -59 l0 -35 -29 16 c-16 8 -31
20 -34 27 -3 7 -6 -55 -6 -138 -1 -169 1 -164 -72 -164 l-39 0 0 150 c0 93 4
150 10 150 6 0 10 -22 10 -50 0 -45 2 -50 23 -50 12 0 29 5 37 10 12 8 9 10
-11 10 -24 0 -27 5 -33 45 -5 29 -12 45 -22 45 -21 0 -19 57 4 63 45 12 -86 5
-155 -8 -43 -8 -99 -15 -125 -15 l-48 0 0 35 c0 27 4 35 18 35 9 0 27 3 39 6
17 5 22 0 28 -26 4 -17 12 -29 18 -27 13 5 13 11 2 40 -5 12 -2 17 9 17 9 0
16 -8 16 -19 0 -19 17 -38 26 -28 2 2 0 16 -5 31 -9 21 -8 26 4 26 9 0 15 -10
15 -24 0 -14 5 -28 10 -31 10 -6 14 7 10 34 -2 20 19 31 63 31 33 0 37 -3 37
-26 0 -16 4 -23 11 -18 6 3 9 17 6 30 -3 16 0 24 9 24 8 0 14 -9 14 -19z
m-292 2 c-10 -2 -26 -2 -35 0 -10 3 -2 5 17 5 19 0 27 -2 18 -5z m470 -41 c1
-26 -3 -39 -11 -39 -15 0 -21 43 -7 52 6 4 8 11 5 16 -4 5 -2 9 3 9 5 0 9 -17
10 -38z m1647 6 l60 -24 3 -590 c2 -324 0 -608 -3 -632 l-6 -42 -92 6 c-101 7
-278 -8 -371 -32 -67 -17 -85 -12 -35 11 32 15 32 16 5 10 -24 -5 -27 -3 -22
11 3 9 6 285 6 614 l0 599 31 25 c17 14 34 26 39 26 5 0 15 6 23 14 26 26 81
35 192 32 89 -2 121 -8 170 -28z m-1575 -57 c0 -26 -3 -51 -7 -55 -4 -4 -6
-71 -6 -150 1 -91 -3 -164 -12 -202 -7 -32 -12 -60 -10 -62 1 -2 19 6 39 18
40 22 56 25 56 11 0 -8 -130 -65 -134 -59 -7 11 14 462 24 497 14 56 17 61 35
54 10 -3 15 -20 15 -52z m3640 31 c0 -30 -30 -52 -69 -52 -27 0 -38 -18 -57
-93 -19 -78 -30 -76 -44 7 -5 32 -14 64 -20 71 -18 22 -50 25 -69 6 -15 -15
-32 -16 -115 -13 l-98 4 7 -73 c4 -43 13 -78 21 -84 8 -5 17 -31 20 -57 6 -45
5 -49 -40 -100 -25 -29 -46 -57 -46 -63 0 -5 25 18 56 53 31 35 60 62 65 60
17 -6 100 -145 121 -201 11 -32 25 -60 29 -63 14 -8 10 -24 -6 -24 -8 0 -15 6
-15 13 0 7 -7 4 -15 -7 -17 -22 -22 -13 -28 49 -3 35 -4 33 -5 -12 l-2 -53
-67 -2 c-41 -1 -52 -3 -28 -5 80 -7 105 -14 105 -30 0 -10 -6 -13 -16 -9 -9 3
-39 9 -68 12 -42 5 -60 2 -91 -15 -22 -11 -44 -21 -48 -21 -15 0 1 102 25 169
25 71 56 99 44 40 -4 -19 -10 -55 -13 -81 -6 -46 -5 -48 20 -48 21 0 24 4 20
21 -7 25 17 129 29 129 4 0 8 -31 8 -69 0 -65 1 -69 24 -73 l25 -5 -4 81 c-4
99 -6 106 -15 41 l-7 -50 -1 47 c-1 26 2 49 7 52 11 7 37 -23 44 -49 3 -15 5
-13 6 8 1 26 -45 107 -69 122 -15 9 -100 -74 -116 -114 -19 -45 -45 -147 -50
-194 -3 -35 -1 -38 27 -44 17 -3 33 -12 36 -20 3 -7 15 -19 27 -25 16 -8 15
-4 -8 21 l-29 31 36 15 c20 8 38 15 39 15 2 0 3 -18 1 -39 -1 -25 3 -41 12
-44 13 -6 43 22 63 58 8 14 11 15 11 5 1 -8 -8 -26 -19 -40 -44 -57 -10 -54
53 4 29 28 47 52 47 67 0 12 7 30 15 39 13 14 11 26 -19 105 -19 50 -41 104
-50 120 -21 40 -20 112 2 155 25 46 36 47 63 8 12 -18 24 -34 25 -36 1 -2 12
1 23 8 21 11 21 10 21 -162 0 -95 3 -230 7 -300 l6 -128 -139 -2 -139 -2 138
-3 c134 -3 137 -4 138 -26 l2 -22 4 23 c4 18 11 22 39 22 l34 0 0 -155 0 -155
-24 0 c-20 0 -26 7 -35 47 -9 33 -25 60 -55 90 -24 24 -49 43 -55 43 -27 0
-101 -106 -101 -145 0 -9 -10 -20 -22 -25 -13 -5 -17 -9 -10 -9 9 -1 12 -48
12 -203 l0 -203 -53 -28 c-42 -23 -79 -32 -201 -48 -82 -11 -151 -18 -152 -16
-6 6 -26 1377 -21 1391 3 8 28 15 62 18 70 6 77 13 64 63 -24 92 -37 107 -82
89 -13 -4 -12 -14 5 -71 11 -35 17 -67 14 -70 -2 -3 -16 17 -29 44 -14 26 -39
65 -56 87 -52 65 -52 66 141 105 147 31 316 45 556 49 l122 2 0 -28z m-3932
-199 l2 -181 -27 -6 c-88 -16 -133 -18 -133 -4 0 10 23 19 73 28 42 8 62 16
49 18 l-24 4 22 23 c23 25 23 35 1 120 -6 22 -8 58 -4 80 9 60 -6 36 -23 -36
-8 -35 -19 -74 -25 -85 -6 -12 -10 -43 -8 -68 3 -36 1 -46 -11 -46 -8 0 -24
-3 -35 -6 -20 -5 -21 -1 -21 140 l-1 146 32 0 c17 0 36 -5 43 -12 9 -9 12 -9
12 1 0 23 42 72 59 69 14 -3 16 -26 19 -185z m-91 150 c3 -7 -3 -9 -16 -6 -12
3 -21 10 -21 15 0 13 32 6 37 -9z m-89 -63 l3 -59 -30 15 c-33 16 -35 23 -25
73 5 23 12 31 28 31 19 0 22 -6 24 -60z m1050 34 c113 -23 196 -64 220 -111
14 -25 16 -153 3 -153 -4 0 -6 10 -4 23 2 12 -1 36 -8 52 l-11 30 -14 -30 -14
-30 2 40 c4 55 -23 55 -34 1 -11 -54 -21 -60 -18 -11 4 61 1 85 -10 85 -5 0
-11 -19 -12 -42 -1 -37 -2 -39 -5 -10 -4 34 -26 44 -37 16 -3 -9 -6 -32 -7
-52 l-1 -37 -9 44 c-14 74 -52 81 -57 12 -3 -39 -5 -42 -30 -39 -24 3 -27 8
-32 53 -4 37 -9 51 -22 53 -15 3 -18 -4 -18 -35 0 -68 -8 -83 -46 -83 -33 0
-34 2 -34 38 0 56 -10 82 -31 82 -16 0 -19 -8 -21 -57 l-1 -58 -8 55 -7 55 2
-63 c1 -52 -2 -62 -16 -62 -9 0 -23 -3 -32 -6 -12 -5 -16 5 -18 53 -3 50 -6
58 -23 58 -18 0 -20 -6 -17 -58 3 -52 1 -58 -20 -66 -20 -7 -24 -5 -29 18 -4
14 -7 48 -8 75 -1 47 -1 48 -23 34 -19 -13 -21 -23 -21 -94 0 -72 0 -74 -6
-24 -4 40 -10 56 -23 58 -12 2 -18 -5 -21 -25 -2 -15 -2 1 1 37 3 52 9 70 30
93 78 83 300 120 490 81z m420 -21 c-3 -24 -9 -29 -47 -35 -24 -4 -47 -10 -50
-14 -3 -3 11 -3 32 1 36 7 37 7 37 -23 0 -22 -6 -32 -21 -37 -30 -10 -51 16
-53 62 -1 34 3 40 34 55 52 27 72 24 68 -9z m2440 -1 c2 -11 -9 -39 -24 -61
-29 -45 -51 -55 -39 -18 4 12 8 37 8 55 0 31 1 32 12 12 14 -26 27 -15 18 18
-4 18 -2 23 8 20 8 -3 15 -14 17 -26z m-808 -82 l0 -90 -29 0 c-16 0 -37 -3
-47 -7 -15 -6 -16 -1 -10 38 3 24 9 68 13 97 6 51 6 52 39 52 l34 0 0 -90z
m99 83 c16 -4 33 -26 57 -77 44 -92 44 -98 -8 -94 -36 3 -43 7 -52 35 -6 17
-15 35 -19 39 -12 12 -27 -16 -27 -49 0 -16 -4 -26 -10 -22 -5 3 -10 44 -10
91 0 92 3 95 69 77z m90 -83 c0 -16 -48 68 -48 85 0 6 11 -8 24 -30 14 -22 25
-47 24 -55z m-2791 60 c-10 -15 -10 -32 0 -77 12 -56 7 -72 -20 -73 -14 0 -9
158 5 163 23 10 27 7 15 -13z m-125 -137 c-3 -65 -7 -120 -9 -121 -1 -2 -12
-1 -23 3 -20 6 -21 14 -21 136 l0 130 29 -16 29 -15 -5 -117z m3981 98 c6 -9
18 -305 35 -872 8 -236 13 -314 25 -340 14 -33 15 -29 13 86 l-2 120 99 13
c54 7 101 10 105 7 3 -4 6 -78 6 -166 0 -131 -3 -161 -15 -169 -22 -14 -27
-12 -33 10 -4 14 -14 20 -35 20 -35 0 -49 -14 -54 -55 -2 -25 -7 -30 -28 -27
-14 1 -90 5 -170 8 -132 6 -216 -1 -262 -21 -13 -5 -18 -3 -18 9 0 9 4 16 9
16 6 0 54 90 107 200 54 110 99 199 100 197 1 -1 -9 -54 -23 -117 -13 -63 -30
-148 -37 -187 l-13 -73 91 0 c50 0 122 -7 161 -15 38 -8 72 -15 73 -15 2 0 -7
13 -21 29 -13 16 -39 65 -57 108 -17 43 -50 119 -73 168 -41 88 -42 93 -49
235 -16 315 -29 717 -23 747 10 56 71 113 89 84z m-4227 -53 c-3 -8 -6 -5 -6
6 -1 11 2 17 5 13 3 -3 4 -12 1 -19z m477 -68 c-1 -39 -4 -73 -8 -77 -3 -3 -6
25 -6 64 0 56 5 83 14 83 1 0 1 -32 0 -70z m-90 -67 c5 -61 4 -73 -9 -73 -8 0
-15 7 -15 15 0 8 -4 15 -10 15 -5 0 -10 22 -10 50 0 36 5 52 17 59 10 5 18 9
19 8 1 -1 4 -35 8 -74z m2244 36 l42 -11 0 -138 0 -138 -60 5 c-49 5 -64 2
-80 -12 -19 -18 -20 -17 -20 4 0 22 -2 23 -85 20 l-85 -4 0 98 c0 108 -7 119
-59 97 -24 -9 -30 -19 -35 -57 -3 -25 -6 -66 -6 -91 0 -31 -6 -49 -17 -59 -16
-12 -14 -13 15 -8 79 16 121 -13 131 -90 l6 -40 138 -3 c149 -3 144 0 126 -64
-7 -27 -16 -38 -28 -38 -12 0 -21 -10 -25 -25 -8 -33 -24 -32 -28 2 -4 35 -35
44 -40 11 -2 -17 -9 -23 -28 -23 -21 0 -25 4 -22 28 3 20 -1 27 -13 27 -13 0
-16 -6 -13 -25 6 -31 -21 -35 -29 -5 -7 27 -37 22 -41 -8 -5 -34 -52 -31 -52
3 0 16 -6 25 -15 25 -8 0 -15 -6 -15 -14 0 -24 -21 -30 -27 -7 -8 30 -33 27
-33 -4 0 -16 -6 -25 -15 -25 -8 0 -15 8 -15 18 0 10 -3 21 -6 25 -11 11 -34
-5 -34 -24 0 -10 -7 -19 -15 -19 -8 0 -15 9 -15 20 0 16 -7 20 -30 20 -28 0
-30 -3 -30 -35 0 -25 -4 -35 -15 -35 -22 0 -35 42 -35 109 l0 57 43 0 c23 0
87 0 142 2 l100 2 0 38 c0 51 -10 62 -53 61 l-37 -2 35 -6 c32 -5 35 -9 38
-43 l3 -38 -70 0 -70 0 6 30 6 30 -62 0 c-34 0 -61 -4 -61 -10 0 -5 21 -10 46
-10 38 0 45 -3 42 -17 -3 -14 -14 -18 -54 -19 l-51 -1 -2 53 -2 54 80 0 81 0
0 -45 c0 -25 5 -45 10 -45 6 0 10 25 10 55 l0 55 -35 0 -36 0 3 132 3 131 40
14 c22 8 63 18 90 23 65 12 307 5 363 -11z m255 -86 c4 -58 7 -177 7 -265 l0
-158 125 0 125 0 0 -191 0 -192 -77 7 c-42 3 -94 6 -115 6 -35 0 -39 2 -34 20
3 11 8 29 12 40 3 13 -7 33 -36 64 -32 35 -49 66 -71 136 -39 120 -38 159 1
185 22 14 29 26 25 40 -2 11 -5 28 -5 38 0 26 -45 67 -73 67 -21 0 -25 6 -31
46 -9 71 -7 182 4 189 6 3 10 17 10 31 0 20 5 24 33 25 17 0 41 4 52 9 39 17
42 12 48 -97z m60 100 c-7 -2 -21 -2 -30 0 -10 3 -4 5 12 5 17 0 24 -2 18 -5z
m-1930 -43 c35 -11 72 -29 82 -40 18 -20 18 -22 1 -57 l-17 -36 -22 21 c-49
46 -100 56 -282 57 -182 0 -242 -11 -300 -57 l-27 -21 -20 21 c-27 27 -18 46
32 72 129 66 404 86 553 40z m2137 -30 l0 -60 -125 0 -125 0 0 54 c0 65 -4 63
143 65 l107 1 0 -60z m-1820 -55 c0 -36 -2 -65 -4 -65 -2 0 -11 -3 -20 -6 -14
-5 -16 3 -16 53 0 54 11 83 32 83 4 0 8 -29 8 -65z m-1112 29 c12 -4 22 -14
22 -23 0 -14 -11 -16 -77 -13 -48 2 -113 -5 -168 -16 -89 -18 -104 -16 -105
15 0 15 36 22 129 28 40 2 76 6 79 9 7 8 91 7 120 0z m495 -21 c-7 -2 -19 -2
-25 0 -7 3 -2 5 12 5 14 0 19 -2 13 -5z m1607 -83 l0 -90 -35 0 -35 0 2 68 2
67 3 -62 c3 -55 7 -63 23 -63 17 0 20 7 20 48 0 64 -9 94 -26 88 -8 -3 -14 1
-14 9 0 12 17 21 48 24 9 1 12 -23 12 -89z m-1730 61 c-30 -9 -66 -23 -80 -30
-16 -9 -21 -9 -14 -2 14 16 104 50 129 50 11 0 -5 -8 -35 -18z m239 -12 c79
-12 157 -45 176 -73 10 -13 15 -46 15 -97 l0 -77 -61 19 c-33 10 -77 18 -97
18 -37 -1 -37 -1 8 -9 25 -5 68 -16 95 -27 41 -15 51 -23 53 -46 4 -32 6 -31
-49 -12 -111 39 -344 27 -445 -25 l-54 -27 0 43 c0 43 0 43 60 71 l60 28 0 72
c0 43 -5 75 -11 79 -9 5 -11 -13 -7 -67 l5 -74 -49 -22 -48 -22 0 88 c0 98 5
107 75 137 74 31 175 40 274 23z m-659 -33 l0 -34 -95 -17 c-53 -10 -94 -20
-91 -22 3 -3 48 3 100 12 l96 17 0 34 c0 31 2 34 31 34 l31 0 -6 -62 c-3 -35
-8 -196 -11 -358 -6 -257 -9 -302 -26 -348 -20 -55 -27 -150 -9 -122 6 10 7
-38 3 -135 -6 -149 -6 -150 -38 -195 -28 -40 -30 -48 -19 -65 7 -11 14 -36 16
-55 3 -30 0 -35 -21 -38 l-24 -4 6 274 c4 169 10 286 18 306 8 25 9 36 0 45
-7 7 -11 85 -12 236 -1 149 -4 209 -9 176 -5 -27 -9 -125 -9 -216 l-1 -167
-25 -6 c-14 -4 -37 -25 -52 -47 -26 -39 -28 -50 -33 -190 -5 -134 -8 -151 -28
-176 -12 -16 -27 -38 -33 -50 -9 -17 -22 -22 -70 -25 -33 -2 -59 -3 -59 -2 0
0 7 15 16 32 24 49 15 70 -38 86 -17 5 -18 26 -18 255 l0 250 45 51 45 51 0
182 c0 178 1 183 25 219 14 20 25 46 25 56 0 17 13 22 88 34 48 9 108 16 135
17 l47 1 0 -34z m2980 -146 l0 -170 -115 0 -115 0 0 88 c0 48 -3 124 -7 170
l-6 82 122 0 121 0 0 -170z m-2708 119 c20 -11 20 -16 14 -188 -4 -97 -3 -170
2 -164 6 9 18 5 45 -18 42 -35 42 -38 31 -244 l-7 -111 -46 -11 c-25 -6 -71
-18 -102 -27 l-56 -16 -2 -62 c-1 -34 -8 -73 -15 -86 -12 -23 -13 -21 -19 38
-13 123 -5 170 39 220 7 9 14 46 16 89 l3 74 65 36 c41 24 66 44 67 56 2 11 0
14 -3 7 -3 -7 -36 -28 -74 -47 -37 -19 -70 -41 -74 -50 -3 -9 -6 -43 -6 -75
l0 -58 -37 -4 c-21 -3 -38 -5 -38 -4 -1 1 1 47 3 102 l4 102 65 33 c36 18 61
35 55 37 -6 2 -34 -9 -62 -23 -29 -15 -54 -24 -57 -21 -3 3 -2 86 2 185 l7
180 47 16 c25 9 57 22 71 30 31 18 36 18 62 4z m2046 -151 l-3 -63 -52 -3 -53
-3 0 50 c0 27 -3 56 -6 65 -5 14 3 16 55 16 l62 0 -3 -62z m160 46 c12 -4 22
-13 22 -21 0 -12 -8 -14 -37 -9 -21 3 -48 6 -60 6 -14 0 -23 6 -23 15 0 16 53
21 98 9z m156 -23 c3 -5 -10 -11 -29 -13 -24 -3 -35 0 -35 9 0 15 56 18 64 4z
m-168 -21 c20 0 24 -5 24 -29 0 -17 -4 -32 -9 -35 -13 -9 -131 6 -131 15 0 5
7 9 15 9 10 0 15 10 15 26 0 24 3 26 31 20 17 -3 42 -6 55 -6z m1076 -32 c-10
-22 -11 -21 -11 12 -1 26 2 31 11 22 8 -8 8 -17 0 -34z m-892 18 c0 -8 -6 -21
-13 -28 -8 -7 -16 -20 -20 -28 -3 -9 -6 -4 -6 12 -1 14 -4 33 -7 42 -5 12 0
16 20 16 16 0 26 -6 26 -14z m-61 -69 c0 -10 -3 -15 -9 -12 -5 3 -9 25 -9 48
1 40 2 40 9 12 4 -16 8 -38 9 -48z m-80 -80 c-20 -90 -25 -102 -34 -83 -9 17
-5 39 18 109 16 49 31 86 34 84 2 -3 -6 -52 -18 -110z m-1605 17 c5 -17 1 -23
-16 -29 -22 -8 -22 -8 4 -12 25 -4 28 -9 34 -64 4 -40 11 -59 20 -59 9 0 14
-11 14 -28 0 -25 -6 -30 -50 -44 l-51 -16 2 99 c1 55 -1 103 -5 106 -3 3 1 15
9 27 8 11 15 29 15 40 0 24 15 11 24 -20z m1636 -109 c-5 -33 -11 -68 -15 -78
-7 -16 -105 -75 -105 -63 0 10 50 79 50 70 2 -29 32 57 47 132 l18 89 6 -45
c3 -25 3 -72 -1 -105z m-2152 44 c-8 -6 -22 0 -38 17 -21 21 -23 26 -10 34 11
8 21 3 38 -16 18 -21 21 -29 10 -35z m449 -151 c-2 -29 -3 -6 -3 52 0 58 1 81
3 53 2 -29 2 -77 0 -105z m1208 37 l-7 -65 71 0 71 0 0 65 0 65 30 0 30 0 0
-65 0 -65 40 0 40 0 0 65 0 65 71 0 c69 0 71 -1 65 -22 -3 -13 -6 -29 -6 -35
0 -7 -22 -38 -50 -68 -27 -30 -50 -62 -50 -69 0 -8 11 -23 25 -34 14 -11 25
-23 25 -26 0 -3 -36 -6 -79 -6 -44 0 -82 -3 -84 -8 -7 -11 4 -62 13 -62 5 0
12 9 15 20 5 17 15 20 71 20 l64 0 0 -66 0 -67 -37 7 c-21 3 -143 6 -270 6
l-233 0 0 74 0 74 47 4 c38 3 47 0 51 -14 3 -14 15 -18 48 -18 37 0 44 3 44
20 0 19 7 20 90 20 60 0 90 4 90 11 0 9 -50 10 -185 4 -164 -6 -185 -5 -185 9
0 10 6 13 15 10 13 -5 15 10 15 98 0 58 3 108 7 111 3 4 40 7 81 7 l74 0 -7
-65z m-178 -32 c-2 -16 -4 -3 -4 27 0 30 2 43 4 28 2 -16 2 -40 0 -55z m610
55 c-3 -8 -6 -5 -6 6 -1 11 2 17 5 13 3 -3 4 -12 1 -19z m198 -118 c39 -15 25
-23 -15 -9 -39 14 -218 6 -249 -11 -18 -9 -20 -14 -10 -26 8 -10 8 -14 0 -14
-6 0 -14 7 -18 16 -11 29 11 47 63 52 27 2 51 6 54 9 8 8 144 -5 175 -17z
m-1531 -36 c13 -12 16 -39 16 -123 0 -158 -3 -168 -54 -173 -22 -3 -41 -4 -41
-4 -1 1 2 37 5 81 l7 80 1 -62 c2 -60 3 -63 27 -63 32 0 37 19 33 155 -3 97
-5 110 -20 109 -10 -1 -15 2 -12 7 8 13 21 11 38 -7z m1526 -12 c19 -9 35 -23
34 -29 -1 -7 -2 -44 -2 -82 l-2 -68 -52 14 c-41 10 -68 11 -122 3 -37 -6 -77
-15 -87 -21 -18 -9 -19 -5 -19 89 0 54 3 102 7 105 3 4 52 7 107 7 76 0 110
-4 136 -18z m-1770 -3 l50 -11 0 -114 0 -115 -47 6 c-76 10 -73 7 -73 95 0 79
0 80 26 80 14 0 23 4 19 10 -3 6 -15 10 -26 10 -14 0 -19 7 -19 25 0 29 1 29
70 14z m190 -54 c-7 -45 -7 -46 -9 -13 -1 32 8 74 14 66 1 -2 -1 -25 -5 -53z
m3295 -17 c7 -18 15 -77 16 -132 4 -94 3 -99 -18 -107 -13 -5 -25 -4 -28 1 -9
14 3 30 23 30 16 1 16 1 0 11 -15 9 -18 26 -18 119 0 61 2 110 6 110 3 0 11
-15 19 -32z m-928 -210 c-1 -46 -3 -11 -3 77 0 88 2 125 3 83 2 -42 2 -114 0
-160z m-539 192 l52 0 0 -70 c0 -81 8 -76 -117 -59 -133 18 -123 11 -123 81
l0 61 68 -6 c37 -4 91 -7 120 -7z m-2565 -227 c-4 -126 -10 -201 -17 -205 -6
-4 -23 -8 -37 -8 -23 0 -27 6 -38 53 -27 111 -61 278 -61 295 0 14 17 23 68
39 37 11 72 21 79 22 10 1 11 -44 6 -196z m-319 151 c3 -8 2 -12 -4 -9 -6 3
-10 10 -10 16 0 14 7 11 14 -7z m155 -16 c0 -7 -4 -22 -9 -33 -7 -17 -9 -15
-9 13 -1 17 4 32 9 32 6 0 10 -6 9 -12z m1569 -8 l32 -12 0 -178 0 -179 -103
1 c-57 0 -138 -3 -180 -7 l-77 -7 0 195 c0 147 3 197 13 201 22 10 281 -1 315
-14z m898 3 c11 -4 14 -31 14 -117 l0 -112 -83 4 c-45 2 -99 0 -120 -6 l-37
-10 0 91 c0 51 3 102 6 114 11 42 148 64 220 36z m-1246 -188 l0 -195 -40 0
c-38 0 -40 2 -40 30 0 17 -7 47 -15 67 -10 25 -15 71 -15 154 l0 118 43 9 c23
6 48 10 55 11 9 1 12 -44 12 -194z m2679 107 c17 -40 28 -72 25 -72 -6 0 -49
94 -59 130 -13 44 4 16 34 -58z m-4010 0 c1 -12 8 -33 16 -46 19 -28 13 -72
-15 -125 l-19 -36 0 135 c0 84 4 127 9 115 5 -11 9 -30 9 -43z m2031 50 c0 -4
-31 -36 -70 -70 -38 -35 -92 -97 -120 -139 l-50 -77 0 142 0 142 40 0 c33 0
40 -3 40 -20 0 -26 17 -26 25 -1 6 19 15 22 113 29 12 1 22 -2 22 -6z m121 -2
c62 0 69 -2 69 -20 0 -11 5 -20 10 -20 6 0 10 7 10 15 0 11 12 15 45 15 l45 0
0 -136 0 -136 -50 75 c-55 82 -105 132 -180 178 -49 30 -65 47 -34 35 9 -3 47
-6 85 -6z m-39 -76 c59 -44 156 -156 185 -216 21 -42 21 -53 18 -368 -3 -265
-2 -302 6 -200 5 69 13 150 17 180 7 54 7 54 52 68 44 13 156 12 179 -2 12 -8
13 -202 2 -460 l-6 -149 -139 -49 c-108 -38 -145 -47 -165 -40 l-26 9 -5 314
c-5 287 -7 318 -26 365 -32 78 -80 141 -130 170 l-45 27 -42 -29 c-51 -36 -98
-104 -127 -182 -34 -94 -41 -104 -35 -48 8 73 51 159 105 210 78 73 124 73
193 2 49 -50 89 -128 107 -206 20 -87 29 -102 29 -50 1 111 -86 263 -179 314
l-51 28 -43 -22 c-58 -28 -131 -107 -163 -178 l-26 -56 -4 -346 c-2 -189 -7
-348 -12 -353 -4 -4 -22 -11 -39 -16 l-32 -10 0 409 0 409 45 32 45 32 0 74
c0 64 4 81 32 131 58 105 174 232 199 216 7 -4 9 -3 5 4 -5 8 4 17 23 21 2 1
26 -15 53 -35z m731 20 l47 -7 0 -135 0 -134 -31 6 c-17 3 -38 6 -45 6 -10 0
-12 9 -8 30 8 35 -9 60 -40 60 -31 0 -46 -19 -46 -57 0 -35 -2 -36 -36 -27
-19 5 -24 18 -33 82 -6 42 -16 81 -21 86 -6 6 -10 32 -10 59 l0 50 88 -6 c48
-4 108 -10 135 -13z m1309 -86 c-7 -7 -12 -8 -12 -2 0 14 12 26 19 19 2 -3 -1
-11 -7 -17z m38 6 c0 -13 9 -15 45 -12 41 3 57 -4 38 -15 -20 -11 -123 -18
-123 -8 0 6 7 11 16 11 11 0 14 6 9 20 -4 11 -2 20 4 20 6 0 11 -7 11 -16z
m-4355 -361 c-4 -17 -13 -23 -34 -23 -17 0 -31 6 -35 16 -8 21 -8 223 0 263 5
24 13 33 38 39 l31 8 3 -140 c1 -78 0 -151 -3 -163z m4455 298 c0 -9 -71 -21
-123 -21 -35 0 -26 16 13 23 46 8 110 7 110 -2z m-750 -11 c-19 -5 -64 -11
-100 -14 l-65 -5 65 13 c36 8 81 14 100 14 l35 0 -35 -8z m358 -29 c23 -74 19
-81 -42 -81 l-55 0 -3 42 c-2 31 -8 44 -20 46 -15 3 -18 -5 -20 -45 l-1 -48
-4 43 c-3 29 -9 42 -20 42 -12 0 -14 -10 -11 -44 2 -36 0 -46 -14 -50 -16 -4
-18 4 -18 55 0 57 1 59 33 68 17 5 62 10 98 10 l66 1 11 -39z m-1339 18 c29
-10 31 -14 31 -59 l0 -47 -67 4 c-61 4 -121 -4 -163 -21 -13 -5 -14 3 -12 53
3 54 6 61 30 70 37 13 142 13 181 0z m1486 -21 c22 -11 42 -22 43 -24 8 -6
-10 -64 -19 -64 -6 0 -7 4 -4 10 3 6 -1 7 -9 4 -12 -5 -16 1 -16 25 0 38 -19
42 -21 4 -1 -25 -2 -24 -8 6 -8 48 -31 53 -31 7 0 -32 -3 -36 -25 -36 -22 0
-25 4 -25 34 0 28 4 35 23 39 18 4 17 4 -6 6 -18 0 -26 5 -21 12 8 14 67 3
119 -23z m-395 -18 c11 -21 20 -45 20 -52 0 -10 -37 -19 -127 -31 -71 -10
-136 -21 -145 -23 -15 -5 -18 1 -18 35 l0 41 40 0 c34 0 40 -3 40 -21 0 -11 5
-17 10 -14 6 3 10 20 10 36 0 29 -2 30 -32 24 -18 -4 -41 -9 -52 -12 -12 -3
-17 -1 -14 8 3 10 44 19 124 30 65 9 120 17 121 18 2 0 12 -17 23 -39z m-4130
-5 c0 -23 -4 -25 -45 -25 -41 0 -45 2 -45 25 0 23 4 25 45 25 41 0 45 -2 45
-25z m1502 -35 c-4 -38 -6 -40 -38 -40 -33 0 -34 1 -34 40 0 40 0 40 38 40
l38 0 -4 -40z m142 34 c30 -12 17 -26 -18 -20 -40 8 -66 -1 -66 -21 0 -12 3
-13 14 -4 21 18 70 10 74 -11 3 -16 -5 -18 -57 -18 l-61 0 0 40 0 40 49 0 c27
0 56 -3 65 -6z m2196 -183 c0 -169 -1 -180 -20 -186 -15 -5 -17 -11 -11 -28 4
-12 9 -150 10 -306 l2 -284 -83 6 c-46 4 -118 7 -160 7 l-78 0 0 154 c0 85 -4
166 -10 180 -5 14 -10 146 -10 293 l-1 268 128 16 c70 9 129 15 131 14 2 -2
22 8 45 21 23 13 45 24 50 24 4 0 7 -81 7 -179z m-3860 119 c0 -14 -7 -20 -22
-21 -21 -1 -20 -2 5 -11 25 -9 27 -14 27 -61 0 -66 -22 -971 -24 -974 0 0 -23
-4 -50 -8 l-49 -8 7 174 c4 96 13 273 21 394 8 121 15 291 15 378 l0 157 35 0
c28 0 35 -4 35 -20z m634 -17 c8 -4 -39 -9 -105 -9 -66 -1 -117 1 -115 4 21
20 186 25 220 5z m2602 9 c7 -4 14 -18 15 -31 3 -20 11 -26 38 -29 24 -2 32 0
29 10 -3 7 -14 14 -26 16 -40 6 -26 32 17 32 57 0 71 -8 71 -41 0 -34 25 -40
35 -9 3 11 11 20 17 20 5 0 12 -9 15 -20 3 -11 9 -20 13 -20 4 0 11 -7 14 -16
5 -14 -2 -15 -61 -10 -38 3 -106 8 -153 11 l-85 6 0 45 c0 40 2 44 25 44 14 0
30 -4 36 -8z m-183 -13 l39 -10 -4 -119 -3 -118 -23 9 c-32 12 -129 11 -175
-2 -22 -6 -41 -8 -44 -6 -3 3 -2 55 2 116 7 106 8 110 34 120 54 21 121 25
174 10z m1121 -11 c10 -40 7 -338 -4 -338 -5 0 -10 5 -10 11 0 6 -7 26 -16 45
-15 32 -80 74 -116 74 -23 0 -68 -49 -91 -99 -18 -42 -19 -66 -18 -405 l1
-361 -21 33 c-29 44 -38 136 -38 397 -1 304 22 403 114 484 46 40 71 39 136
-5 47 -31 51 -32 29 -9 -78 84 -160 72 -229 -32 l-31 -46 0 115 0 115 118 20
c159 28 168 28 176 1z m302 3 c23 -10 45 -24 49 -31 4 -7 7 -53 7 -104 -1 -50
2 -118 7 -151 7 -51 9 -37 10 88 1 123 3 147 16 147 12 0 15 -18 15 -102 0
-57 3 -126 6 -154 l6 -51 -48 8 c-27 4 -113 8 -191 8 l-142 1 -6 53 c-3 28 -5
106 -3 172 l3 120 30 6 c68 15 199 9 241 -10z m-4308 3 c18 -5 22 -13 21 -48
-1 -42 -2 -42 -15 9 -7 26 -9 21 -14 -35 l-5 -65 -22 22 c-18 18 -23 20 -34 7
-6 -8 -25 -14 -41 -14 -27 0 -30 3 -24 23 3 12 6 39 6 59 0 36 1 37 43 41 23
2 47 4 52 5 6 1 20 -1 33 -4z m2013 -47 c2 -24 2 -255 -1 -513 l-5 -469 -55
-15 c-30 -8 -59 -18 -65 -21 -16 -10 -204 -43 -211 -37 -3 3 -2 247 2 542 l7
535 41 10 c23 5 96 9 162 10 l122 1 3 -43z m-1697 17 c11 -28 6 -54 -9 -54
-10 0 -15 11 -15 35 0 36 13 47 24 19z m46 -14 c0 -20 -5 -30 -15 -30 -10 0
-15 10 -15 30 0 20 5 30 15 30 10 0 15 -10 15 -30z m52 0 c-2 -17 -10 -30 -18
-30 -9 0 -14 11 -14 30 0 22 5 30 18 30 15 0 18 -6 14 -30z m-142 -10 c0 -16
-4 -30 -10 -30 -5 0 -10 14 -10 30 0 17 5 30 10 30 6 0 10 -13 10 -30z m1390
-40 l0 -50 -35 0 -35 0 0 50 0 50 35 0 35 0 0 -50z m-1074 -26 c-9 -23 -25
-16 -19 9 10 44 16 53 21 29 2 -13 1 -30 -2 -38z m-36 6 c0 -20 -5 -30 -15
-30 -17 0 -18 4 -9 38 9 32 24 27 24 -8z m2688 14 l72 -6 0 -137 c0 -75 3
-247 7 -383 l6 -248 -26 0 -25 0 -4 212 c-3 197 -5 216 -25 255 -41 76 -121
116 -190 95 -20 -6 -38 -10 -39 -9 -1 1 -4 55 -6 121 l-3 118 80 -6 c44 -3
113 -9 153 -12z m-917 -30 c-42 -35 -75 -94 -103 -184 -22 -71 -23 -90 -23
-352 0 -224 -3 -278 -13 -278 -11 0 -13 53 -10 282 4 275 5 285 30 354 14 40
34 85 44 100 22 37 85 104 97 104 5 0 -5 -12 -22 -26z m90 5 c41 -29 84 -96
109 -169 19 -55 22 -92 26 -304 2 -133 0 -263 -5 -291 -6 -36 -9 20 -10 200
-1 138 -6 279 -12 314 -12 77 -47 152 -99 212 -44 51 -48 50 -105 -37 -74
-111 -78 -136 -83 -451 -2 -163 -8 -283 -13 -283 -5 0 -9 106 -9 253 0 272 8
332 55 430 20 43 100 147 113 147 2 0 17 -9 33 -21z m-2458 -431 c-3 -238 -8
-436 -12 -439 -11 -11 -93 -40 -98 -35 -3 3 -2 203 2 445 8 432 8 441 28 441
11 0 26 -8 34 -17 13 -17 14 -16 8 4 -5 20 0 25 36 32 4 0 4 -194 2 -431z
m515 320 l3 -108 -88 0 c-48 0 -97 -3 -109 -6 -20 -5 -20 -3 -13 48 4 29 8 81
8 116 l1 63 98 -3 97 -3 3 -107z m-228 -65 c-6 -81 -18 -211 -26 -288 -8 -77
-14 -161 -14 -187 0 -46 -2 -49 -47 -78 l-48 -29 -3 307 c-3 357 -1 392 32
392 12 0 27 5 33 11 11 11 74 29 81 23 2 -1 -1 -69 -8 -151z m-160 -231 l0
-368 -55 -27 -55 -27 0 253 c0 138 3 296 7 349 5 82 9 97 24 101 11 3 19 11
19 17 0 7 -8 10 -20 7 -17 -4 -20 0 -20 29 l0 34 50 0 50 0 0 -368z m2960
-104 l0 -208 -23 0 -24 0 -6 183 c-7 167 -2 224 19 258 5 9 11 7 21 -6 10 -14
13 -68 13 -227z m908 -360 l-3 -143 -27 -3 -28 -3 0 145 0 146 30 0 31 0 -3
-142z m-780 125 c-42 -2 -114 -2 -160 0 -46 1 -11 3 77 3 88 0 125 -2 83 -3z
m-278 -113 c0 -50 -2 -90 -5 -90 -3 0 -57 21 -121 47 l-117 46 114 43 c63 23
117 43 122 43 4 1 7 -39 7 -89z m-382 3 c105 -12 27 -23 -168 -22 -173 0 -192
1 -165 14 32 15 238 20 333 8z m117 -43 c12 -5 -102 -9 -275 -9 -173 0 -287 4
-275 9 26 11 524 11 550 0z m85 -39 c25 -6 -48 -10 -245 -12 l-280 -2 300 -9
c401 -11 474 -29 105 -24 -151 1 -313 0 -360 -4 -79 -6 298 -14 555 -11 50 1
115 -3 145 -8 35 -5 -187 -9 -595 -9 -371 0 -641 3 -630 8 11 5 52 10 90 11
55 1 62 3 35 8 l-35 7 40 7 c22 4 60 7 85 8 29 1 36 3 20 7 -22 4 -19 7 25 23
46 17 76 19 380 14 182 -2 346 -8 365 -14z"/>
<path d="M3871 4474 c0 -11 3 -14 6 -6 3 7 2 16 -1 19 -3 4 -6 -2 -5 -13z"/>
<path d="M3897 4213 c-11 -10 -8 -93 3 -93 6 0 10 23 10 50 0 51 -1 55 -13 43z"/>
<path d="M2057 4189 c-14 -18 -24 -36 -21 -38 8 -9 57 46 52 60 -2 7 -14 -1
-31 -22z"/>
<path d="M2230 4190 c0 -5 5 -10 11 -10 5 0 7 5 4 10 -3 6 -8 10 -11 10 -2 0
-4 -4 -4 -10z"/>
<path d="M2044 4140 c-12 -5 -25 -13 -28 -19 -4 -7 -1 -8 8 -5 13 5 15 0 10
-25 -5 -25 -4 -30 8 -26 25 10 52 86 31 84 -5 0 -18 -4 -29 -9z"/>
<path d="M2224 4116 c-10 -27 0 -81 16 -81 11 0 16 13 18 48 2 37 0 47 -13 47
-8 0 -18 -6 -21 -14z"/>
<path d="M4510 4422 c0 -33 16 -43 27 -16 3 8 -2 23 -11 32 -15 15 -16 14 -16
-16z m17 -14 c-3 -8 -6 -5 -6 6 -1 11 2 17 5 13 3 -3 4 -12 1 -19z"/>
<path d="M2602 4475 c0 -16 2 -22 5 -12 2 9 2 23 0 30 -3 6 -5 -1 -5 -18z"/>
<path d="M2712 4380 c0 -14 2 -19 5 -12 2 6 2 18 0 25 -3 6 -5 1 -5 -13z"/>
<path d="M2590 4345 c0 -8 5 -15 10 -15 6 0 10 7 10 15 0 8 -4 15 -10 15 -5 0
-10 -7 -10 -15z"/>
<path d="M2610 4094 c0 -64 1 -66 23 -60 12 3 25 6 30 6 4 0 7 27 7 60 0 43
-4 60 -13 60 -10 0 -13 -13 -9 -54 3 -33 0 -56 -7 -60 -8 -5 -11 11 -11 53 0
34 -4 61 -10 61 -6 0 -10 -29 -10 -66z"/>
<path d="M2770 4100 c0 -47 3 -60 15 -60 12 0 15 13 15 60 0 47 -3 60 -15 60
-12 0 -15 -13 -15 -60z"/>
<path d="M2703 3813 c-7 -2 -13 -16 -13 -29 0 -17 6 -24 20 -24 16 0 20 7 20
30 0 30 -4 33 -27 23z"/>
<path d="M2600 3665 c0 -22 4 -34 10 -30 6 3 10 17 10 30 0 13 -4 27 -10 30
-6 4 -10 -8 -10 -30z"/>
<path d="M3340 4131 c0 -17 -3 -31 -7 -31 -5 0 -6 -29 -5 -65 3 -48 7 -65 18
-65 10 0 14 15 14 59 0 57 1 60 28 64 l27 4 -28 2 c-24 1 -27 5 -25 27 2 15
-3 29 -9 31 -9 3 -13 -6 -13 -26z"/>
<path d="M3217 4143 c-13 -13 -7 -53 8 -53 10 0 15 10 15 30 0 29 -9 38 -23
23z"/>
<path d="M3427 4053 c-11 -10 -8 -93 3 -93 6 0 10 23 10 50 0 51 -1 55 -13 43z"/>
<path d="M3276 4034 c-8 -21 -8 -39 1 -30 8 7 15 46 9 46 -2 0 -7 -7 -10 -16z"/>
<path d="M3425 3940 c3 -5 8 -10 11 -10 2 0 4 5 4 10 0 6 -5 10 -11 10 -5 0
-7 -4 -4 -10z"/>
<path d="M3280 3751 c0 -25 4 -31 21 -31 16 0 20 5 17 27 -2 17 -10 29 -20 31
-14 3 -18 -3 -18 -27z"/>
<path d="M4316 4031 c-4 -7 -5 -15 -2 -18 9 -9 19 4 14 18 -4 11 -6 11 -12 0z"/>
<path d="M4324 3985 c-15 -12 -16 -16 -5 -24 9 -5 12 -20 9 -40 -4 -25 -2 -29
10 -19 9 8 12 22 8 41 -3 17 -1 36 5 43 15 19 -2 18 -27 -1z"/>
<path d="M4327 3873 c-4 -3 -7 -30 -7 -60 0 -46 3 -53 20 -53 17 0 20 7 20 44
0 63 -13 90 -33 69z"/>
<path d="M4326 3664 c-3 -9 -6 -31 -6 -50 0 -26 3 -32 15 -28 10 4 15 20 15
50 0 44 -12 58 -24 28z"/>
<path d="M4324 3519 c-4 -8 1 -9 17 -5 22 6 23 6 4 -5 -32 -19 -45 -40 -45
-76 0 -35 6 -36 67 -18 13 4 27 -41 17 -57 -5 -7 -2 -8 6 -3 16 10 8 138 -10
160 -15 18 -46 20 -56 4z"/>
<path d="M4537 4063 c-4 -3 -7 -42 -7 -85 0 -71 2 -78 20 -78 18 0 20 7 20 74
0 49 -4 77 -13 85 -8 6 -17 8 -20 4z"/>
<path d="M4055 3967 c-19 -17 -19 -19 -2 -31 13 -10 17 -28 17 -79 0 -39 5
-69 12 -73 8 -5 9 14 4 74 -3 44 -3 82 2 84 4 1 3 12 -3 24 -10 20 -10 20 -30
1z"/>
<path d="M3840 3939 c0 -11 5 -17 10 -14 6 3 10 13 10 21 0 8 -4 14 -10 14 -5
0 -10 -9 -10 -21z"/>
<path d="M4934 3974 c-4 -14 -2 -30 3 -35 6 -6 10 3 11 26 2 41 -5 46 -14 9z"/>
<path d="M2225 3960 c-3 -5 1 -10 10 -10 9 0 13 5 10 10 -3 6 -8 10 -10 10 -2
0 -7 -4 -10 -10z"/>
<path d="M2260 3695 c0 -108 1 -115 20 -115 19 0 20 7 20 99 0 108 -5 131 -26
131 -11 0 -14 -23 -14 -115z"/>
<path d="M2242 3720 c-1 -47 -5 -103 -8 -125 -4 -31 -3 -36 6 -23 7 11 9 58 7
125 -3 104 -3 105 -5 23z"/>
<path d="M2365 3788 c-3 -8 -4 -61 -3 -119 3 -90 5 -104 21 -107 15 -3 17 7
17 106 0 85 -3 112 -15 122 -12 10 -16 9 -20 -2z"/>
<path d="M2424 3655 c0 -82 2 -115 3 -72 2 43 2 110 0 150 -1 40 -3 5 -3 -78z"/>
<path d="M2005 3768 c-2 -7 -6 -52 -10 -100 l-6 -88 25 0 26 0 0 100 c0 83 -3
100 -15 100 -9 0 -17 -6 -20 -12z"/>
<path d="M5052 3800 c0 -14 2 -19 5 -12 2 6 2 18 0 25 -3 6 -5 1 -5 -13z"/>
<path d="M1610 3651 c0 -6 5 -13 10 -16 6 -3 10 1 10 9 0 9 -4 16 -10 16 -5 0
-10 -4 -10 -9z"/>
<path d="M1390 3634 c0 -8 5 -12 10 -9 6 4 8 11 5 16 -9 14 -15 11 -15 -7z"/>
<path d="M1496 3635 c4 -8 7 -15 9 -15 2 0 5 7 9 15 3 9 0 15 -9 15 -9 0 -12
-6 -9 -15z"/>
<path d="M1661 3641 c-7 -5 -10 -14 -7 -20 4 -6 12 -9 17 -5 5 3 16 0 24 -6
18 -15 19 -6 5 21 -12 21 -18 23 -39 10z"/>
<path d="M1518 3474 c-3 -3 -3 -52 0 -110 3 -74 2 -104 -7 -104 -7 0 -11 30
-11 93 0 93 -9 125 -29 113 -7 -5 -11 -45 -11 -110 0 -57 -5 -107 -10 -112 -7
-7 5 -7 40 0 l50 10 0 107 c0 97 -7 129 -22 113z"/>
<path d="M3780 3430 c-14 -14 -19 -32 -18 -57 l1 -38 4 38 c5 42 38 72 68 61
13 -5 16 -4 11 4 -11 18 -44 14 -66 -8z"/>
<path d="M3817 3414 c-4 -4 -7 -20 -7 -36 0 -23 4 -29 17 -26 10 2 19 10 21
18 3 19 -21 54 -31 44z"/>
<path d="M3787 3403 c-11 -10 -8 -63 3 -63 6 0 10 16 10 35 0 36 -2 40 -13 28z"/>
<path d="M3770 3260 c0 -58 3 -68 15 -64 11 5 15 22 15 70 0 50 -3 64 -15 64
-12 0 -15 -14 -15 -70z"/>
<path d="M3817 3323 c-4 -3 -7 -33 -7 -65 0 -53 2 -58 21 -58 19 0 21 4 15 38
-3 20 -6 49 -6 65 0 26 -9 34 -23 20z"/>
<path d="M4030 3412 c0 -32 4 -41 21 -45 18 -5 20 -1 17 36 -2 30 -8 43 -20
45 -15 3 -18 -4 -18 -36z"/>
<path d="M3197 2928 c3 -95 7 -175 9 -177 2 -2 4 73 4 167 0 101 -4 173 -10
177 -6 4 -8 -54 -3 -167z"/>
<path d="M3130 2830 c0 -38 4 -50 15 -50 11 0 15 12 15 50 0 38 -4 50 -15 50
-11 0 -15 -12 -15 -50z"/>
<path d="M918 3313 c7 -3 16 -2 19 1 4 3 -2 6 -13 5 -11 0 -14 -3 -6 -6z"/>
<path d="M938 3255 c-3 -24 0 -35 9 -35 8 0 13 13 13 35 0 19 -4 35 -9 35 -5
0 -11 -16 -13 -35z"/>
<path d="M456 3263 c-12 -13 -6 -71 9 -77 12 -4 15 3 15 34 0 37 -10 56 -24
43z"/>
<path d="M407 3254 c-10 -11 -9 -74 2 -74 6 0 12 3 15 8 7 12 -8 74 -17 66z"/>
<path d="M500 3218 c0 -26 5 -50 10 -53 13 -8 13 65 0 85 -7 11 -10 2 -10 -32z"/>
<path d="M2740 3112 c0 -5 14 -7 30 -4 17 2 30 6 30 8 0 2 -13 4 -30 4 -16 0
-30 -4 -30 -8z"/>
<path d="M1650 2075 c0 -33 12 -46 25 -25 8 12 -5 60 -16 60 -5 0 -9 -16 -9
-35z"/>
<path d="M1700 2079 c0 -11 5 -17 10 -14 6 3 10 13 10 21 0 8 -4 14 -10 14 -5
0 -10 -9 -10 -21z"/>
<path d="M1611 2054 c0 -11 3 -14 6 -6 3 7 2 16 -1 19 -3 4 -6 -2 -5 -13z"/>
<path d="M1169 3076 c-2 -2 -2 -27 -1 -56 5 -61 26 -64 29 -4 2 64 6 63 13 -6
l7 -65 1 68 c2 64 1 67 -21 67 -13 0 -26 -2 -28 -4z"/>
<path d="M2644 2946 c-3 -7 -4 -35 -2 -62 2 -37 7 -50 21 -52 15 -3 17 5 17
62 0 53 -3 66 -15 66 -9 0 -18 -6 -21 -14z"/>
<path d="M2720 2720 c0 -20 5 -30 15 -30 10 0 15 10 15 30 0 20 -5 30 -15 30
-10 0 -15 -10 -15 -30z"/>
<path d="M2833 2633 c9 -2 23 -2 30 0 6 3 -1 5 -18 5 -16 0 -22 -2 -12 -5z"/>
<path d="M340 2908 c0 -7 5 -20 10 -28 8 -12 10 -9 10 13 0 15 -4 27 -10 27
-5 0 -10 -6 -10 -12z"/>
<path d="M388 2894 c3 -17 8 -22 15 -15 11 11 3 41 -11 41 -5 0 -7 -12 -4 -26z"/>
<path d="M165 2870 c-7 -12 2 -30 16 -30 5 0 9 9 9 20 0 21 -15 27 -25 10z"/>
<path d="M477 2653 c-4 -3 -7 -35 -7 -70 0 -49 3 -63 15 -63 12 0 15 14 15 70
0 64 -6 81 -23 63z"/>
<path d="M2268 2634 c2 -141 2 -261 -1 -267 -3 -9 -36 -11 -111 -9 l-106 3 0
88 c0 74 -3 93 -21 115 -25 31 -59 34 -85 5 -15 -17 -20 -40 -22 -120 -4 -93
-5 -99 -25 -100 -17 -1 -18 -2 -4 -6 15 -4 17 -17 17 -100 l0 -95 28 6 c15 3
48 8 75 12 l47 6 0 84 c0 81 1 84 25 90 14 3 64 3 110 -1 63 -5 91 -12 111
-28 l27 -20 -12 21 c-6 12 -15 22 -20 22 -4 0 -11 111 -14 248 -3 136 -10 259
-14 274 -4 16 -7 -87 -5 -228z m-256 -71 c24 -28 30 -85 22 -234 l-7 -139 -36
-6 c-20 -3 -44 -8 -53 -11 -15 -3 -18 2 -18 30 0 18 3 36 6 40 3 3 5 67 5 141
-1 89 2 143 10 158 22 41 47 48 71 21z"/>
<path d="M1956 2544 c-3 -9 -6 -73 -6 -144 0 -128 0 -128 23 -122 12 3 25 10
29 16 9 13 11 228 2 250 -3 9 -14 16 -24 16 -10 0 -21 -7 -24 -16z"/>
<path d="M1958 2253 c6 -2 18 -2 25 0 6 3 1 5 -13 5 -14 0 -19 -2 -12 -5z"/>
<path d="M2173 2772 c13 -15 17 -39 17 -115 0 -60 4 -98 11 -103 8 -5 10 23 7
98 -3 102 -14 138 -41 138 -5 0 -3 -8 6 -18z"/>
<path d="M2137 2773 c-3 -5 -5 -54 -6 -110 l-2 -103 25 0 26 0 0 100 c0 94 -1
100 -21 100 -11 0 -17 5 -14 10 3 6 4 10 1 10 -3 0 -7 -3 -9 -7z"/>
<path d="M2024 1940 c0 -107 2 -151 3 -97 2 53 2 141 0 195 -1 53 -3 9 -3 -98z"/>
<path d="M1910 2001 c-5 -11 -9 -53 -8 -93 l2 -73 3 65 c4 82 10 110 25 110 9
0 9 -3 0 -12 -7 -7 -12 -43 -12 -93 0 -79 -1 -82 -26 -94 -34 -15 -25 -25 10
-11 15 5 38 10 52 10 24 0 24 2 24 85 0 72 -3 88 -20 105 -25 25 -37 25 -50 1z"/>
<path d="M2280 1985 c7 -9 15 -13 17 -11 7 7 -7 26 -19 26 -6 0 -6 -6 2 -15z"/>
<path d="M2265 1938 c-2 -7 -5 -59 -7 -115 -3 -101 -3 -102 22 -106 14 -3 25
-5 25 -4 0 1 -2 53 -5 116 -3 79 -9 116 -17 119 -7 2 -15 -2 -18 -10z"/>
<path d="M2058 1623 c23 -2 61 -2 85 0 23 2 4 4 -43 4 -47 0 -66 -2 -42 -4z"/>
<path d="M1948 1613 c12 -2 30 -2 40 0 9 3 -1 5 -23 4 -22 0 -30 -2 -17 -4z"/>
<path d="M1888 1603 c6 -2 18 -2 25 0 6 3 1 5 -13 5 -14 0 -19 -2 -12 -5z"/>
<path d="M3718 2765 c-5 -5 16 -142 23 -149 2 -2 22 -1 44 3 47 7 51 19 35 96
l-11 55 -43 0 c-23 0 -45 -2 -48 -5z"/>
<path d="M3677 2403 c-4 -3 -7 -30 -7 -60 0 -50 1 -53 25 -53 22 0 25 4 25 34
0 59 -22 100 -43 79z"/>
<path d="M3676 2125 c-3 -9 -6 -30 -6 -46 0 -24 4 -29 26 -29 23 0 25 3 22 42
-3 45 -29 65 -42 33z"/>
<path d="M3677 1933 c-4 -3 -7 -42 -7 -85 l0 -78 35 0 35 0 0 73 c0 43 -5 78
-12 85 -13 13 -41 16 -51 5z"/>
<path d="M4182 1920 c0 -14 2 -19 5 -12 2 6 2 18 0 25 -3 6 -5 1 -5 -13z"/>
<path d="M4090 1893 c-49 -32 -82 -69 -106 -115 -13 -27 -22 -48 -20 -48 3 0
21 24 41 54 36 55 93 106 117 106 29 0 79 -42 108 -92 17 -29 28 -42 25 -28
-10 36 -51 97 -77 114 -39 24 -63 27 -88 9z"/>
<path d="M3718 1558 c-2 -13 -2 -56 0 -95 4 -73 4 -73 33 -73 l29 0 0 76 c0
41 -5 84 -10 95 -15 26 -47 24 -52 -3z"/>
<path d="M886 2625 c8 -37 14 -45 14 -19 0 10 -5 26 -10 34 -8 11 -9 7 -4 -15z"/>
<path d="M901 2564 c0 -11 3 -14 6 -6 3 7 2 16 -1 19 -3 4 -6 -2 -5 -13z"/>
<path d="M1083 2368 c-4 -7 -8 -50 -8 -95 l0 -83 33 0 32 0 0 79 c0 44 -3 86
-6 95 -7 19 -39 21 -51 4z"/>
<path d="M901 2302 c-6 -11 -11 -37 -11 -57 0 -29 3 -36 18 -33 12 2 18 15 20
47 4 51 -11 73 -27 43z"/>
<path d="M318 2293 c7 -3 16 -2 19 1 4 3 -2 6 -13 5 -11 0 -14 -3 -6 -6z"/>
<path d="M326 2225 c-3 -9 -6 -39 -6 -66 0 -46 2 -49 25 -49 25 0 26 1 23 62
-2 49 -7 64 -19 66 -9 2 -19 -4 -23 -13z"/>
<path d="M297 2013 c-4 -3 -6 -58 -5 -122 l2 -116 5 115 c5 98 9 115 23 118
16 3 16 1 3 -25 -10 -18 -15 -58 -15 -117 0 -87 0 -88 23 -82 12 3 32 6 45 6
21 0 22 3 22 98 0 83 -3 102 -18 115 -18 17 -73 23 -85 10z"/>
<path d="M200 1735 c-5 -14 -10 -42 -10 -61 0 -30 3 -34 25 -34 25 0 26 2 23
57 -3 62 -22 81 -38 38z"/>
<path d="M207 1544 c-4 -4 -7 -45 -7 -91 0 -77 2 -83 20 -83 20 0 21 5 18 87
-3 79 -12 106 -31 87z"/>
<path d="M3351 2355 c-31 -35 -31 -36 -31 -150 l0 -115 35 0 35 0 0 94 c0 98
-11 126 -37 91 -12 -18 -13 -17 -13 8 0 14 10 38 23 52 l22 27 20 -22 c18 -20
20 -34 17 -140 l-3 -118 30 -4 31 -5 0 102 c0 88 -2 103 -20 118 -11 9 -20 22
-20 29 -1 12 -44 68 -53 68 -3 0 -19 -16 -36 -35z"/>
<path d="M777 1793 c-4 -3 -7 -39 -7 -78 0 -72 0 -72 25 -67 24 4 25 7 25 78
0 65 -2 74 -18 74 -10 0 -22 -3 -25 -7z"/>
<path d="M1410 1950 c0 -5 5 -10 10 -10 6 0 10 5 10 10 0 6 -4 10 -10 10 -5 0
-10 -4 -10 -10z"/>
<path d="M3170 1681 c0 -17 4 -32 9 -35 11 -7 24 41 16 54 -12 20 -25 9 -25
-19z"/>
<path d="M3010 1685 c0 -8 7 -15 15 -15 8 0 15 7 15 15 0 8 -7 15 -15 15 -8 0
-15 -7 -15 -15z"/>
<path d="M2070 1336 c0 -50 2 -56 21 -56 18 0 20 5 17 52 -2 41 -7 54 -20 56
-15 3 -18 -5 -18 -52z"/>
<path d="M3043 1430 c0 -36 2 -50 4 -32 2 17 2 47 0 65 -2 17 -4 3 -4 -33z"/>
<path d="M3062 1423 c2 -52 6 -68 18 -68 12 0 15 14 15 65 0 54 -3 65 -18 68
-16 3 -18 -3 -15 -65z"/>
<path d="M2612 1297 l-52 -52 51 -44 51 -44 51 49 c28 27 54 50 57 52 5 3 -91
91 -100 92 -3 0 -29 -24 -58 -53z m82 4 c16 -18 15 -19 -24 -40 -64 -33 -78
-27 -39 18 19 22 37 40 40 40 3 1 14 -7 23 -18z m40 -30 c4 -5 -13 -25 -36
-45 -32 -27 -44 -33 -55 -25 -17 15 -17 33 1 26 7 -3 26 8 42 24 29 31 39 35
48 20z"/>
<path d="M2836 1215 c4 -11 15 -47 25 -80 15 -47 18 -51 13 -20 -3 22 -14 58
-25 80 -11 22 -16 31 -13 20z"/>
<path d="M2881 1044 c0 -11 3 -14 6 -6 3 7 2 16 -1 19 -3 4 -6 -2 -5 -13z"/>
<path d="M110 1240 c0 -5 5 -10 11 -10 5 0 7 5 4 10 -3 6 -8 10 -11 10 -2 0
-4 -4 -4 -10z"/>
<path d="M3690 966 l0 -75 35 2 35 2 0 73 c0 56 -3 72 -15 72 -10 0 -15 -17
-18 -67 l-3 -68 -2 68 c-2 52 -5 67 -17 67 -12 0 -15 -15 -15 -74z"/>
<path d="M3026 1114 c-3 -9 -6 -47 -6 -85 0 -55 3 -69 15 -69 12 0 15 16 15
85 0 79 -10 107 -24 69z"/>
<path d="M3060 1046 c0 -79 1 -84 20 -79 17 5 20 14 20 68 0 72 -6 95 -26 95
-11 0 -14 -19 -14 -84z"/>
<path d="M4410 950 c0 -95 1 -100 21 -100 20 0 21 4 17 100 -3 87 -5 100 -20
100 -16 0 -18 -11 -18 -100z"/>
<path d="M2303 63 c15 -2 37 -2 50 0 12 2 0 4 -28 4 -27 0 -38 -2 -22 -4z"/>
<path d="M2626 4812 c-3 -5 -19 -12 -36 -15 -16 -4 -30 -11 -30 -16 0 -6 13
-8 31 -4 29 5 31 4 24 -16 -6 -20 -4 -22 17 -19 19 2 23 9 23 37 0 33 -17 52
-29 33z"/>
<path d="M2151 4791 c-14 -4 -26 -12 -29 -19 -3 -9 3 -10 22 -2 14 5 29 10 33
9 4 0 9 4 11 10 4 12 -1 12 -37 2z"/>
<path d="M3330 4780 c20 -13 33 -13 25 0 -3 6 -14 10 -23 10 -15 0 -15 -2 -2
-10z"/>
<path d="M91 4655 c-1 -11 -4 -31 -7 -45 -5 -22 -4 -23 6 -7 6 10 9 30 7 45
-3 18 -5 20 -6 7z"/>
<path d="M3311 4604 c0 -11 3 -14 6 -6 3 7 2 16 -1 19 -3 4 -6 -2 -5 -13z"/>
<path d="M3291 4534 c-7 -25 -10 -48 -8 -51 3 -2 10 17 16 43 7 25 10 48 8 51
-3 2 -10 -17 -16 -43z"/>
<path d="M4997 4543 c-12 -12 -7 -69 7 -89 14 -18 15 -18 24 6 7 18 5 33 -5
55 -19 37 -18 36 -26 28z"/>
<path d="M1550 4238 c0 -17 36 -35 47 -24 4 3 0 6 -7 6 -7 0 -19 8 -26 18 -12
16 -13 16 -14 0z"/>
<path d="M20 3906 c0 -42 -4 -66 -13 -69 -7 -4 -6 -6 5 -6 41 -2 48 9 48 75 0
57 -2 64 -20 64 -18 0 -20 -7 -20 -64z"/>
<path d="M450 3945 c0 -8 4 -15 10 -15 5 0 7 7 4 15 -4 8 -8 15 -10 15 -2 0
-4 -7 -4 -15z"/>
<path d="M110 3943 c0 -5 9 -14 20 -21 12 -7 18 -17 15 -22 -3 -6 6 -10 20
-10 25 0 25 1 8 19 -22 22 -63 45 -63 34z"/>
<path d="M425 3930 c3 -5 8 -10 11 -10 2 0 4 5 4 10 0 6 -5 10 -11 10 -5 0 -7
-4 -4 -10z"/>
<path d="M2966 3913 c-6 -14 -5 -15 5 -6 7 7 10 15 7 18 -3 3 -9 -2 -12 -12z"/>
<path d="M36 3753 c-3 -3 -6 -28 -6 -55 0 -36 4 -48 15 -48 11 0 15 12 15 49
0 47 -9 68 -24 54z"/>
<path d="M1128 3743 c-10 -2 -41 -17 -70 -33 -51 -28 -52 -30 -22 -30 17 0 59
-3 93 -6 l62 -7 -3 39 c-3 40 -17 49 -60 37z"/>
<path d="M965 3710 c-3 -5 1 -10 10 -10 9 0 13 5 10 10 -3 6 -8 10 -10 10 -2
0 -7 -4 -10 -10z"/>
<path d="M22 3438 c-8 -8 -12 -45 -12 -105 l0 -93 30 0 31 0 -3 102 c-2 83 -6
103 -18 106 -9 1 -21 -3 -28 -10z"/>
<path d="M116 3424 c-3 -9 -6 -53 -6 -99 0 -77 1 -83 23 -89 46 -12 47 -10 47
80 0 47 -5 94 -10 105 -13 23 -46 25 -54 3z"/>
<path d="M4845 2987 c-4 -10 -5 -21 -1 -24 10 -10 18 4 13 24 -4 17 -4 17 -12
0z"/>
<path d="M5106 2888 c-7 -29 -6 -173 4 -263 5 -54 7 -30 8 108 1 97 0 177 -2
177 -2 0 -6 -10 -10 -22z"/>
<path d="M4946 2807 c-16 -12 -18 -26 -15 -104 2 -50 6 -94 9 -97 3 -3 16 -2
29 1 23 6 23 8 19 100 -6 102 -14 121 -42 100z"/>
<path d="M28 2715 c5 -81 22 -86 22 -6 0 48 3 60 18 64 9 3 4 5 -13 6 l-30 1
3 -65z"/>
<path d="M68 2690 c2 -22 8 -40 13 -40 10 0 11 25 3 58 -10 36 -20 25 -16 -18z"/>
<path d="M125 2681 c5 -25 3 -31 -10 -31 -9 0 -13 -4 -10 -10 3 -5 15 -10 26
-10 17 0 20 6 17 37 -2 20 -9 38 -17 41 -10 3 -12 -3 -6 -27z"/>
<path d="M0 2572 c0 -69 3 -82 16 -82 14 0 16 11 12 70 -2 38 -9 75 -16 82 -9
9 -12 -6 -12 -70z"/>
<path d="M67 2613 c-9 -8 -9 -86 -1 -107 13 -35 24 -13 24 49 0 60 -6 75 -23
58z"/>
<path d="M4950 2236 l-34 -13 3 -169 c1 -93 4 -170 6 -172 2 -2 23 -1 47 3
l43 7 -3 136 c-3 149 -9 222 -20 221 -4 0 -23 -6 -42 -13z"/>
<path d="M1097 1894 c-4 -4 -7 -34 -7 -66 0 -56 1 -58 25 -58 25 0 26 1 23 62
-2 47 -7 64 -18 66 -9 1 -19 0 -23 -4z"/>
<path d="M6 1578 c-4 -24 -3 -45 4 -52 7 -7 10 6 10 42 0 29 -2 52 -4 52 -2 0
-6 -19 -10 -42z"/>
<path d="M5038 1366 c-103 -12 -104 -31 -1 -22 81 8 87 9 82 23 -2 4 -39 4
-81 -1z"/>
<path d="M1087 1243 c-4 -3 -7 -37 -7 -75 0 -66 1 -68 25 -68 24 0 25 3 25 53
0 28 -3 62 -6 75 -6 21 -24 29 -37 15z"/>
<path d="M5005 1176 c-13 -20 -15 -37 -8 -88 l8 -63 6 70 5 70 2 -65 2 -66 35
4 35 4 0 57 c0 90 -48 133 -85 77z"/>
<path d="M4770 1131 c-13 -24 -13 -121 -1 -121 6 0 12 17 14 38 l4 37 1 -39
c2 -35 4 -38 25 -32 12 3 28 6 35 6 15 0 16 67 2 104 -10 28 -37 34 -59 14
-11 -10 -13 -10 -7 0 4 6 5 12 2 12 -3 0 -10 -9 -16 -19z"/>
<path d="M1445 976 c-13 -19 -15 -46 -13 -125 l3 -101 48 0 47 0 0 113 c0 75
-4 117 -12 125 -20 20 -56 14 -73 -12z"/>
<path d="M5014 860 c-35 -14 -82 -77 -99 -132 -18 -61 -19 -75 -4 -80 6 -2 14
-118 22 -322 9 -238 15 -320 25 -324 15 -5 16 24 0 400 -11 284 -11 298 7 318
10 11 26 20 35 20 39 0 43 -22 52 -313 9 -326 16 -427 29 -427 12 0 12 55 -2
420 -14 355 -14 355 -87 347 l-46 -5 41 39 c45 42 68 47 99 24 23 -17 34 -19
34 -5 0 11 -59 50 -75 49 -5 0 -19 -4 -31 -9z"/>
<path d="M1807 843 c-4 -3 -7 -19 -7 -35 0 -21 5 -28 20 -28 16 0 20 7 20 35
0 33 -16 46 -33 28z"/>
<path d="M976 765 c-3 -9 -6 -37 -6 -61 0 -41 2 -44 25 -44 25 0 26 2 23 57
-2 44 -7 59 -19 61 -9 2 -19 -4 -23 -13z"/>
<path d="M4670 575 c0 -49 3 -86 6 -83 7 8 8 157 0 165 -3 3 -6 -33 -6 -82z"/>
<path d="M4681 311 c-1 -42 2 -52 11 -43 8 8 8 23 1 54 l-11 43 -1 -54z"/>
<path d="M4693 145 c0 -22 2 -30 4 -17 2 12 2 30 0 40 -3 9 -5 -1 -4 -23z"/>
</g>
</svg>